<svg xmlns="http://www.w3.org/2000/svg" xmlns:xlink="http://www.w3.org/1999/xlink" viewBox="0 0 414.3 230.31"><defs><style>.cls-1{mask:url(#mask);filter:url(#luminosity-noclip-14);}.cls-10,.cls-12,.cls-14,.cls-16,.cls-18,.cls-2,.cls-20,.cls-22,.cls-24,.cls-26,.cls-4,.cls-6,.cls-8{mix-blend-mode:multiply;}.cls-2{fill:url(#linear-gradient);}.cls-3{mask:url(#mask-2);filter:url(#luminosity-noclip-19);}.cls-4{fill:url(#linear-gradient-2);}.cls-5{mask:url(#mask-3);filter:url(#luminosity-noclip-20);}.cls-6{fill:url(#linear-gradient-3);}.cls-7{mask:url(#mask-4);filter:url(#luminosity-noclip-21);}.cls-8{fill:url(#linear-gradient-4);}.cls-9{mask:url(#mask-5);filter:url(#luminosity-noclip-22);}.cls-10{fill:url(#linear-gradient-5);}.cls-11{mask:url(#mask-6);filter:url(#luminosity-noclip-23);}.cls-12{fill:url(#linear-gradient-6);}.cls-13{mask:url(#mask-7);filter:url(#luminosity-noclip-15);}.cls-14{fill:url(#linear-gradient-7);}.cls-15{mask:url(#mask-8);filter:url(#luminosity-noclip-24);}.cls-16{fill:url(#linear-gradient-8);}.cls-17{mask:url(#mask-9);filter:url(#luminosity-noclip-25);}.cls-18{fill:url(#linear-gradient-9);}.cls-19{mask:url(#mask-10);filter:url(#luminosity-noclip-26);}.cls-20{fill:url(#linear-gradient-10);}.cls-21{mask:url(#mask-11);filter:url(#luminosity-noclip-16);}.cls-22{fill:url(#linear-gradient-11);}.cls-23{mask:url(#mask-12);filter:url(#luminosity-noclip-17);}.cls-24{fill:url(#linear-gradient-12);}.cls-25{mask:url(#mask-13);filter:url(#luminosity-noclip-18);}.cls-26{fill:url(#linear-gradient-13);}.cls-27{isolation:isolate;}.cls-28{fill:url(#linear-gradient-14);}.cls-112,.cls-29,.cls-30,.cls-31,.cls-35,.cls-38,.cls-41,.cls-63,.cls-87,.cls-88,.cls-93{mix-blend-mode:screen;}.cls-29,.cls-30,.cls-31,.cls-35,.cls-38{opacity:0.9;}.cls-29{fill:url(#linear-gradient-15);}.cls-30{fill:url(#linear-gradient-16);}.cls-31{fill:url(#linear-gradient-17);}.cls-32{fill:#5697fb;}.cls-103,.cls-109,.cls-112,.cls-32,.cls-45,.cls-49,.cls-51,.cls-80,.cls-97{opacity:0.5;}.cls-33{fill:url(#linear-gradient-18);}.cls-34{fill:url(#linear-gradient-19);}.cls-35{fill:url(#linear-gradient-20);}.cls-36{mask:url(#mask-14);}.cls-37{fill:url(#linear-gradient-21);}.cls-38{fill:url(#linear-gradient-22);}.cls-39{mask:url(#mask-15);}.cls-105,.cls-111,.cls-116,.cls-40,.cls-48,.cls-65,.cls-71,.cls-72,.cls-73,.cls-77,.cls-78,.cls-79,.cls-99{opacity:0.7;}.cls-40{fill:url(#linear-gradient-23);}.cls-41{fill:url(#linear-gradient-24);}.cls-42{fill:url(#radial-gradient);}.cls-101,.cls-107,.cls-113,.cls-114,.cls-43,.cls-50,.cls-51,.cls-52,.cls-95{mix-blend-mode:color-dodge;}.cls-43{fill:url(#linear-gradient-25);}.cls-44{mask:url(#mask-16);}.cls-45{fill:url(#linear-gradient-26);}.cls-46{fill:#003;opacity:0.1;}.cls-47{mask:url(#mask-17);}.cls-48{fill:url(#linear-gradient-27);}.cls-49{fill:#fff;}.cls-113,.cls-114,.cls-50{opacity:0.8;}.cls-50{fill:url(#radial-gradient-2);}.cls-51{fill:url(#radial-gradient-3);}.cls-52,.cls-74,.cls-75,.cls-76{opacity:0.6;}.cls-52{fill:url(#radial-gradient-4);}.cls-53{fill:url(#linear-gradient-28);}.cls-54{fill:url(#linear-gradient-29);}.cls-55{fill:url(#linear-gradient-30);}.cls-56{fill:url(#linear-gradient-31);}.cls-57{fill:url(#linear-gradient-32);}.cls-58{fill:url(#linear-gradient-33);}.cls-59{fill:url(#linear-gradient-34);}.cls-60{fill:url(#linear-gradient-35);}.cls-61{fill:url(#linear-gradient-36);}.cls-62{fill:url(#linear-gradient-38);}.cls-63{fill:url(#linear-gradient-39);}.cls-64{mask:url(#mask-18);}.cls-65{fill:url(#linear-gradient-40);}.cls-66{fill:url(#linear-gradient-41);}.cls-67{fill:url(#linear-gradient-42);}.cls-68{fill:url(#linear-gradient-43);}.cls-69{fill:url(#linear-gradient-44);}.cls-70{fill:url(#linear-gradient-45);}.cls-71{fill:url(#linear-gradient-46);}.cls-72{fill:url(#linear-gradient-47);}.cls-74{fill:url(#linear-gradient-48);}.cls-75{fill:url(#linear-gradient-49);}.cls-76{fill:url(#linear-gradient-50);}.cls-77{fill:url(#linear-gradient-51);}.cls-78{fill:url(#linear-gradient-52);}.cls-79{fill:url(#linear-gradient-53);}.cls-80{fill:#300;}.cls-81{fill:url(#linear-gradient-54);}.cls-82{fill:url(#linear-gradient-55);}.cls-83{fill:url(#radial-gradient-5);}.cls-84{fill:url(#linear-gradient-56);}.cls-85{fill:url(#radial-gradient-6);}.cls-86{fill:url(#linear-gradient-57);}.cls-87{fill:url(#linear-gradient-58);}.cls-88{fill:url(#linear-gradient-59);}.cls-89{fill:url(#linear-gradient-60);}.cls-90{fill:url(#linear-gradient-61);}.cls-91{mask:url(#mask-19);}.cls-92{fill:url(#linear-gradient-62);}.cls-93{fill:url(#linear-gradient-63);}.cls-94{fill:url(#radial-gradient-7);}.cls-95{fill:url(#linear-gradient-64);}.cls-96{mask:url(#mask-20);}.cls-97{fill:url(#linear-gradient-65);}.cls-98{mask:url(#mask-21);}.cls-99{fill:url(#linear-gradient-66);}.cls-100{fill:url(#radial-gradient-8);}.cls-101{fill:url(#linear-gradient-67);}.cls-102{mask:url(#mask-22);}.cls-103{fill:url(#linear-gradient-68);}.cls-104{mask:url(#mask-23);}.cls-105{fill:url(#linear-gradient-69);}.cls-106{fill:url(#radial-gradient-9);}.cls-107{fill:url(#linear-gradient-70);}.cls-108{mask:url(#mask-24);}.cls-109{fill:url(#linear-gradient-71);}.cls-110{mask:url(#mask-25);}.cls-111{fill:url(#linear-gradient-72);}.cls-112{fill:url(#linear-gradient-73);}.cls-113{fill:url(#radial-gradient-10);}.cls-114{fill:url(#radial-gradient-11);}.cls-115{mask:url(#mask-26);}.cls-116{fill:url(#linear-gradient-74);}.cls-117{filter:url(#luminosity-noclip-13);}.cls-118{filter:url(#luminosity-noclip-12);}.cls-119{filter:url(#luminosity-noclip-11);}.cls-120{filter:url(#luminosity-noclip-10);}.cls-121{filter:url(#luminosity-noclip-9);}.cls-122{filter:url(#luminosity-noclip-8);}.cls-123{filter:url(#luminosity-noclip-7);}.cls-124{filter:url(#luminosity-noclip-6);}.cls-125{filter:url(#luminosity-noclip-5);}.cls-126{filter:url(#luminosity-noclip-4);}.cls-127{filter:url(#luminosity-noclip-3);}.cls-128{filter:url(#luminosity-noclip-2);}.cls-129{filter:url(#luminosity-noclip);}</style><filter id="luminosity-noclip" x="132.1" y="-8375.99" width="274.54" height="32766" filterUnits="userSpaceOnUse" color-interpolation-filters="sRGB"><feFlood flood-color="#fff" result="bg"/><feBlend in="SourceGraphic" in2="bg"/></filter><mask id="mask" x="132.1" y="-8375.99" width="274.54" height="32766" maskUnits="userSpaceOnUse"><g class="cls-129"/></mask><linearGradient id="linear-gradient" x1="1340.98" y1="2734.98" x2="1347.56" y2="2953.07" gradientTransform="matrix(0.48, 0.88, -0.88, 0.48, 2101.73, -2438.19)" gradientUnits="userSpaceOnUse"><stop offset="0"/><stop offset="0.55" stop-color="#fff"/><stop offset="0.55" stop-color="#f8f8f8"/><stop offset="0.63" stop-color="#b7b7b7"/><stop offset="0.7" stop-color="#7f7f7f"/><stop offset="0.77" stop-color="#525252"/><stop offset="0.84" stop-color="#2e2e2e"/><stop offset="0.9" stop-color="#151515"/><stop offset="0.95" stop-color="#050505"/><stop offset="1"/></linearGradient><filter id="luminosity-noclip-2" x="20.45" y="-8375.99" width="12.89" height="32766" filterUnits="userSpaceOnUse" color-interpolation-filters="sRGB"><feFlood flood-color="#fff" result="bg"/><feBlend in="SourceGraphic" in2="bg"/></filter><mask id="mask-2" x="20.45" y="-8375.99" width="12.89" height="32766" maskUnits="userSpaceOnUse"><g class="cls-128"/></mask><linearGradient id="linear-gradient-2" x1="1333.29" y1="3087.81" x2="1341.68" y2="3101.24" gradientTransform="matrix(0.48, 0.88, -0.88, 0.48, 2101.73, -2438.19)" gradientUnits="userSpaceOnUse"><stop offset="0"/><stop offset="0.54" stop-color="#fff"/><stop offset="0.59" stop-color="#e1e1e1"/><stop offset="0.74" stop-color="#828282"/><stop offset="0.86" stop-color="#3c3c3c"/><stop offset="0.95" stop-color="#111"/><stop offset="1"/></linearGradient><filter id="luminosity-noclip-3" x="86.38" y="-8375.99" width="14.03" height="32766" filterUnits="userSpaceOnUse" color-interpolation-filters="sRGB"><feFlood flood-color="#fff" result="bg"/><feBlend in="SourceGraphic" in2="bg"/></filter><mask id="mask-3" x="86.38" y="-8375.99" width="14.03" height="32766" maskUnits="userSpaceOnUse"><g class="cls-127"/></mask><linearGradient id="linear-gradient-3" x1="1330.82" y1="3008.45" x2="1325.17" y2="3022.26" gradientTransform="matrix(0.48, 0.88, -0.88, 0.48, 2101.73, -2438.19)" gradientUnits="userSpaceOnUse"><stop offset="0"/><stop offset="0" stop-color="#020202"/><stop offset="0.05" stop-color="#373737"/><stop offset="0.09" stop-color="#656565"/><stop offset="0.14" stop-color="#8f8f8f"/><stop offset="0.19" stop-color="#b1b1b1"/><stop offset="0.24" stop-color="#cecece"/><stop offset="0.3" stop-color="#e4e4e4"/><stop offset="0.36" stop-color="#f3f3f3"/><stop offset="0.44" stop-color="#fcfcfc"/><stop offset="0.54" stop-color="#fff"/><stop offset="0.62" stop-color="#fcfcfc"/><stop offset="0.68" stop-color="#f2f2f2"/><stop offset="0.73" stop-color="#e2e2e2"/><stop offset="0.78" stop-color="#cbcbcb"/><stop offset="0.83" stop-color="#adadad"/><stop offset="0.88" stop-color="#888"/><stop offset="0.92" stop-color="#5c5c5c"/><stop offset="0.97" stop-color="#2b2b2b"/><stop offset="1"/></linearGradient><filter id="luminosity-noclip-4" x="87.56" y="-8375.99" width="12.82" height="32766" filterUnits="userSpaceOnUse" color-interpolation-filters="sRGB"><feFlood flood-color="#fff" result="bg"/><feBlend in="SourceGraphic" in2="bg"/></filter><mask id="mask-4" x="87.56" y="-8375.99" width="12.82" height="32766" maskUnits="userSpaceOnUse"><g class="cls-126"/></mask><linearGradient id="linear-gradient-4" x1="1331.36" y1="3010.84" x2="1328.47" y2="3020.62" xlink:href="#linear-gradient-2"/><filter id="luminosity-noclip-5" x="62.16" y="-8375.99" width="14.03" height="32766" filterUnits="userSpaceOnUse" color-interpolation-filters="sRGB"><feFlood flood-color="#fff" result="bg"/><feBlend in="SourceGraphic" in2="bg"/></filter><mask id="mask-5" x="62.16" y="-8375.99" width="14.03" height="32766" maskUnits="userSpaceOnUse"><g class="cls-125"/></mask><linearGradient id="linear-gradient-5" x1="1330.82" y1="3036.06" x2="1325.17" y2="3049.86" xlink:href="#linear-gradient-3"/><filter id="luminosity-noclip-6" x="63.35" y="-8375.99" width="12.82" height="32766" filterUnits="userSpaceOnUse" color-interpolation-filters="sRGB"><feFlood flood-color="#fff" result="bg"/><feBlend in="SourceGraphic" in2="bg"/></filter><mask id="mask-6" x="63.35" y="-8375.99" width="12.82" height="32766" maskUnits="userSpaceOnUse"><g class="cls-124"/></mask><linearGradient id="linear-gradient-6" x1="1331.35" y1="3038.44" x2="1328.47" y2="3048.22" xlink:href="#linear-gradient-2"/><filter id="luminosity-noclip-7" x="137.12" y="-8375.99" width="15.47" height="32766" filterUnits="userSpaceOnUse" color-interpolation-filters="sRGB"><feFlood flood-color="#fff" result="bg"/><feBlend in="SourceGraphic" in2="bg"/></filter><mask id="mask-7" x="137.12" y="-8375.99" width="15.47" height="32766" maskUnits="userSpaceOnUse"><g class="cls-123"/></mask><linearGradient id="linear-gradient-7" x1="1324.95" y1="2949.82" x2="1327.75" y2="2964.93" gradientTransform="matrix(0.48, 0.88, -0.88, 0.48, 2101.73, -2438.19)" gradientUnits="userSpaceOnUse"><stop offset="0"/><stop offset="0.55" stop-color="#fff"/><stop offset="0.6" stop-color="#e1e1e1"/><stop offset="0.75" stop-color="#828282"/><stop offset="0.87" stop-color="#3c3c3c"/><stop offset="0.96" stop-color="#111"/><stop offset="1"/></linearGradient><filter id="luminosity-noclip-8" x="7.35" y="-8375.99" width="19.96" height="32766" filterUnits="userSpaceOnUse" color-interpolation-filters="sRGB"><feFlood flood-color="#fff" result="bg"/><feBlend in="SourceGraphic" in2="bg"/></filter><mask id="mask-8" x="7.35" y="-8375.99" width="19.96" height="32766" maskUnits="userSpaceOnUse"><g class="cls-122"/></mask><linearGradient id="linear-gradient-8" x1="1333.63" y1="3092.98" x2="1325.58" y2="3112.66" xlink:href="#linear-gradient-3"/><filter id="luminosity-noclip-9" x="8.95" y="-8375.99" width="18.3" height="32766" filterUnits="userSpaceOnUse" color-interpolation-filters="sRGB"><feFlood flood-color="#fff" result="bg"/><feBlend in="SourceGraphic" in2="bg"/></filter><mask id="mask-9" x="8.95" y="-8375.99" width="18.3" height="32766" maskUnits="userSpaceOnUse"><g class="cls-121"/></mask><linearGradient id="linear-gradient-9" x1="1334.22" y1="3096.34" x2="1330.09" y2="3110.33" xlink:href="#linear-gradient-2"/><filter id="luminosity-noclip-10" x="40.93" y="-8375.99" width="75.02" height="32766" filterUnits="userSpaceOnUse" color-interpolation-filters="sRGB"><feFlood flood-color="#fff" result="bg"/><feBlend in="SourceGraphic" in2="bg"/></filter><mask id="mask-10" x="40.93" y="-8375.99" width="75.02" height="32766" maskUnits="userSpaceOnUse"><g class="cls-120"/></mask><linearGradient id="linear-gradient-10" x1="1334.59" y1="3001.8" x2="1334.59" y2="3069.7" xlink:href="#linear-gradient-2"/><filter id="luminosity-noclip-11" x="116.29" y="-8375.99" width="20.84" height="32766" filterUnits="userSpaceOnUse" color-interpolation-filters="sRGB"><feFlood flood-color="#fff" result="bg"/><feBlend in="SourceGraphic" in2="bg"/></filter><mask id="mask-11" x="116.29" y="-8375.99" width="20.84" height="32766" maskUnits="userSpaceOnUse"><g class="cls-119"/></mask><linearGradient id="linear-gradient-11" x1="1333.68" y1="2967.8" x2="1325.29" y2="2988.31" xlink:href="#linear-gradient-3"/><filter id="luminosity-noclip-12" x="118.02" y="-8375.99" width="19.06" height="32766" filterUnits="userSpaceOnUse" color-interpolation-filters="sRGB"><feFlood flood-color="#fff" result="bg"/><feBlend in="SourceGraphic" in2="bg"/></filter><mask id="mask-12" x="118.02" y="-8375.99" width="19.06" height="32766" maskUnits="userSpaceOnUse"><g class="cls-118"/></mask><linearGradient id="linear-gradient-12" x1="1334.44" y1="2971.33" x2="1330.15" y2="2985.88" xlink:href="#linear-gradient-2"/><filter id="luminosity-noclip-13" x="129.19" y="-8375.99" width="12.14" height="32766" filterUnits="userSpaceOnUse" color-interpolation-filters="sRGB"><feFlood flood-color="#fff" result="bg"/><feBlend in="SourceGraphic" in2="bg"/></filter><mask id="mask-13" x="129.19" y="-8375.99" width="12.14" height="32766" maskUnits="userSpaceOnUse"><g class="cls-117"/></mask><linearGradient id="linear-gradient-13" x1="1321.25" y1="2974.08" x2="1363.47" y2="2974.08" xlink:href="#linear-gradient-2"/><linearGradient id="linear-gradient-14" x1="2596.46" y1="-2407.99" x2="2643.86" y2="-2407.99" gradientTransform="matrix(0.48, 0.88, 0.88, -0.48, 1119.73, -3376.54)" gradientUnits="userSpaceOnUse"><stop offset="0" stop-color="#caffff"/><stop offset="0.15" stop-color="#c2ffff"/><stop offset="0.37" stop-color="#acffff"/><stop offset="0.54" stop-color="#98ffff"/><stop offset="0.62" stop-color="#95fafc"/><stop offset="0.71" stop-color="#8cebf5"/><stop offset="0.82" stop-color="#7cd3e9"/><stop offset="0.93" stop-color="#67b2d8"/><stop offset="1" stop-color="#5697ca"/></linearGradient><linearGradient id="linear-gradient-15" x1="1305.99" y1="2884.55" x2="1321.05" y2="2884.55" gradientTransform="matrix(0.48, 0.88, -0.88, 0.48, 2101.73, -2438.19)" gradientUnits="userSpaceOnUse"><stop offset="0"/><stop offset="0.13" stop-color="#404040"/><stop offset="0.41" stop-color="#c8c8c8"/><stop offset="0.53" stop-color="#fff"/><stop offset="1"/></linearGradient><linearGradient id="linear-gradient-16" x1="1309.79" y1="2816.93" x2="1321.05" y2="2816.93" xlink:href="#linear-gradient-15"/><linearGradient id="linear-gradient-17" x1="1312.91" y1="2746.61" x2="1321.06" y2="2746.61" xlink:href="#linear-gradient-15"/><linearGradient id="linear-gradient-18" x1="1306.75" y1="2771.33" x2="1340.1" y2="2955.61" gradientTransform="matrix(0.48, 0.88, -0.88, 0.48, 2101.73, -2438.19)" gradientUnits="userSpaceOnUse"><stop offset="0" stop-color="#98ffff"/><stop offset="0.13" stop-color="#84dee9"/><stop offset="0.41" stop-color="#528cb1"/><stop offset="0.53" stop-color="#3a6697"/><stop offset="0.68" stop-color="#417297"/><stop offset="0.95" stop-color="#539197"/><stop offset="1" stop-color="#569797"/></linearGradient><linearGradient id="linear-gradient-19" x1="1299.08" y1="2817.27" x2="1352.61" y2="2817.27" gradientTransform="matrix(0.48, 0.88, -0.88, 0.48, 2101.73, -2438.19)" gradientUnits="userSpaceOnUse"><stop offset="0.06" stop-color="#98ffff"/><stop offset="0.09" stop-color="#92f5f7"/><stop offset="0.15" stop-color="#81d9e0"/><stop offset="0.22" stop-color="#66abbc"/><stop offset="0.31" stop-color="#416c8a"/><stop offset="0.41" stop-color="#111d4a"/><stop offset="0.45" stop-color="#003"/><stop offset="0.5" stop-color="#0f1a44"/><stop offset="0.62" stop-color="#284662"/><stop offset="0.73" stop-color="#3c6979"/><stop offset="0.83" stop-color="#4a8289"/><stop offset="0.92" stop-color="#539293"/><stop offset="1" stop-color="#569797"/></linearGradient><linearGradient id="linear-gradient-20" x1="1326.64" y1="2691.66" x2="1308.68" y2="2855.53" xlink:href="#linear-gradient-15"/><filter id="luminosity-noclip-14" x="132.1" y="11.53" width="274.54" height="168.5" filterUnits="userSpaceOnUse" color-interpolation-filters="sRGB"><feFlood flood-color="#fff" result="bg"/><feBlend in="SourceGraphic" in2="bg"/></filter><mask id="mask-14" x="132.1" y="11.53" width="274.54" height="168.5" maskUnits="userSpaceOnUse"><g class="cls-1"><path class="cls-2" d="M406.64,11.53c-3.12,1.13-6.24,2.24-9.36,3.38-46,35.54-187.53,118-265.18,162l1.69,3.08C216.15,133.29,370.43,43.3,406.64,11.53Z"/></g></mask><linearGradient id="linear-gradient-21" x1="1340.98" y1="2734.98" x2="1347.56" y2="2953.07" gradientTransform="matrix(0.48, 0.88, -0.88, 0.48, 2101.73, -2438.19)" gradientUnits="userSpaceOnUse"><stop offset="0" stop-color="#ffff3c"/><stop offset="0.55" stop-color="#ffff3c"/><stop offset="1" stop-color="#ffff3c"/></linearGradient><linearGradient id="linear-gradient-22" x1="1329.28" y1="2676.25" x2="1329.28" y2="2936.69" xlink:href="#linear-gradient-15"/><filter id="luminosity-noclip-15" x="137.12" y="135.31" width="15.47" height="12.81" filterUnits="userSpaceOnUse" color-interpolation-filters="sRGB"><feFlood flood-color="#fff" result="bg"/><feBlend in="SourceGraphic" in2="bg"/></filter><mask id="mask-15" x="137.12" y="135.31" width="15.47" height="12.81" maskUnits="userSpaceOnUse"><g class="cls-13"><path class="cls-14" d="M137.39,145.65c7.14-1.13,11.68-5.13,15.2-10.34-1.57,5.16-3.18,9.88-6.76,11.56a7.93,7.93,0,0,1-4,.37,7.51,7.51,0,0,0-3.81.35,7.3,7.3,0,0,0-.88.52A19.46,19.46,0,0,0,137.39,145.65Z"/></g></mask><linearGradient id="linear-gradient-23" x1="1324.95" y1="2949.82" x2="1327.75" y2="2964.93" gradientTransform="matrix(0.48, 0.88, -0.88, 0.48, 2101.73, -2438.19)" gradientUnits="userSpaceOnUse"><stop offset="0" stop-color="#8fffff"/><stop offset="0.55" stop-color="#8fffff"/><stop offset="1" stop-color="#8fffff"/></linearGradient><linearGradient id="linear-gradient-24" x1="1334.1" y1="2962.02" x2="1313.77" y2="2985.34" xlink:href="#linear-gradient-15"/><radialGradient id="radial-gradient" cx="1294.27" cy="3052.5" r="7.49" gradientTransform="translate(3379.04 -3962.85) rotate(61.32) scale(1.58)" gradientUnits="userSpaceOnUse"><stop offset="0" stop-color="#df6666"/><stop offset="0.01" stop-color="#de6565"/><stop offset="0.21" stop-color="#c54141"/><stop offset="0.4" stop-color="#b12424"/><stop offset="0.6" stop-color="#a21010"/><stop offset="0.8" stop-color="#9a0404"/><stop offset="1" stop-color="#970000"/></radialGradient><linearGradient id="linear-gradient-25" x1="1316.31" y1="2975.16" x2="1323.27" y2="2975.16" gradientTransform="matrix(0.48, 0.88, -0.88, 0.48, 2101.73, -2438.19)" gradientUnits="userSpaceOnUse"><stop offset="0" stop-color="#d5dd34"/><stop offset="0.03" stop-color="#cfd632"/><stop offset="0.39" stop-color="#777c1d"/><stop offset="0.68" stop-color="#37390d"/><stop offset="0.89" stop-color="#0f1004"/><stop offset="1"/></linearGradient><filter id="luminosity-noclip-16" x="116.29" y="151.97" width="20.84" height="11.41" filterUnits="userSpaceOnUse" color-interpolation-filters="sRGB"><feFlood flood-color="#fff" result="bg"/><feBlend in="SourceGraphic" in2="bg"/></filter><mask id="mask-16" x="116.29" y="151.97" width="20.84" height="11.41" maskUnits="userSpaceOnUse"><g class="cls-21"><path class="cls-22" d="M116.32,154a10.84,10.84,0,0,0,6.15,8.67,9.94,9.94,0,0,0,1,.37,11.35,11.35,0,0,0,8.12-.94,10.85,10.85,0,0,0,5.18-6.33c.17-.57.85-4.3-.61-3.7-.69.29-1,1.62-1.41,2.2a13.31,13.31,0,0,1-2.58,2.56,11.1,11.1,0,0,1-6.72,2.31,8.51,8.51,0,0,1-5.85-2.62,9.55,9.55,0,0,1-2-2.78C117,152,116.11,152,116.32,154Z"/></g></mask><linearGradient id="linear-gradient-26" x1="1333.68" y1="2967.8" x2="1325.29" y2="2988.31" gradientTransform="matrix(0.48, 0.88, -0.88, 0.48, 2101.73, -2438.19)" gradientUnits="userSpaceOnUse"><stop offset="0" stop-color="#303"/><stop offset="0.06" stop-color="#303"/><stop offset="0.54" stop-color="#303"/><stop offset="0.95" stop-color="#303"/><stop offset="1" stop-color="#303"/></linearGradient><filter id="luminosity-noclip-17" x="118.02" y="154.49" width="19.06" height="9.26" filterUnits="userSpaceOnUse" color-interpolation-filters="sRGB"><feFlood flood-color="#fff" result="bg"/><feBlend in="SourceGraphic" in2="bg"/></filter><mask id="mask-17" x="118.02" y="154.49" width="19.06" height="9.26" maskUnits="userSpaceOnUse"><g class="cls-23"><path class="cls-24" d="M133.13,161.39l.4-.32a10.33,10.33,0,0,0,1.63-1.75c.11-.15.21-.29.3-.43a9.79,9.79,0,0,0,1.32-2.82,8.31,8.31,0,0,0,.24-1,5.32,5.32,0,0,0,.06-.56,12.07,12.07,0,0,1-9.51,8.32c-3.64.48-7-1.23-9.55-4,0,.06,0,.12.08.17h0l.09.19a8.6,8.6,0,0,0,1.22,1.68h0a8.82,8.82,0,0,0,4.08,2.48,9.9,9.9,0,0,0,3.09.41l.51,0a10.4,10.4,0,0,0,2.37-.44l.48-.15a10.76,10.76,0,0,0,1.67-.74A11.46,11.46,0,0,0,133.13,161.39Z"/></g></mask><linearGradient id="linear-gradient-27" x1="1334.44" y1="2971.33" x2="1330.15" y2="2985.88" gradientTransform="matrix(0.48, 0.88, -0.88, 0.48, 2101.73, -2438.19)" gradientUnits="userSpaceOnUse"><stop offset="0" stop-color="#8fffff"/><stop offset="0.54" stop-color="#8fffff"/><stop offset="1" stop-color="#8fffff"/></linearGradient><radialGradient id="radial-gradient-2" cx="1296.47" cy="3049.76" r="8.1" gradientTransform="translate(3379.04 -3962.85) rotate(61.32) scale(1.58)" xlink:href="#linear-gradient-25"/><radialGradient id="radial-gradient-3" cx="1732.41" cy="5933.1" r="8.1" gradientTransform="matrix(0.2, 1.89, -0.5, 0.05, 2739.49, -3431.69)" xlink:href="#linear-gradient-25"/><radialGradient id="radial-gradient-4" cx="-51.93" cy="9751.15" r="8.09" gradientTransform="matrix(1.82, 1.34, -0.3, 0.4, 3126.05, -3696.48)" xlink:href="#linear-gradient-25"/><linearGradient id="linear-gradient-28" x1="1321.77" y1="-2481.85" x2="1331.93" y2="-2481.85" gradientTransform="matrix(0.48, 0.88, 0.88, -0.48, 1580.88, -2154.42)" gradientUnits="userSpaceOnUse"><stop offset="0" stop-color="#f5de66"/><stop offset="1" stop-color="#bd9724"/></linearGradient><linearGradient id="linear-gradient-29" x1="1318.33" y1="-2469.83" x2="1335.36" y2="-2469.83" xlink:href="#linear-gradient-28"/><linearGradient id="linear-gradient-30" x1="1317.81" y1="-2462.56" x2="1335.88" y2="-2462.56" gradientTransform="matrix(0.48, 0.88, 0.88, -0.48, 1580.88, -2154.42)" gradientUnits="userSpaceOnUse"><stop offset="0" stop-color="#75051d"/><stop offset="0.3" stop-color="#b32831"/><stop offset="0.5" stop-color="#dc3f3f"/><stop offset="0.64" stop-color="#bc2d34"/><stop offset="0.88" stop-color="#891024"/><stop offset="1" stop-color="#75051d"/></linearGradient><linearGradient id="linear-gradient-31" x1="1320.62" y1="-2477.16" x2="1333.07" y2="-2477.16" xlink:href="#linear-gradient-30"/><linearGradient id="linear-gradient-32" x1="1322.99" y1="-2488.36" x2="1330.85" y2="-2488.36" xlink:href="#linear-gradient-28"/><linearGradient id="linear-gradient-33" x1="1318.23" y1="-2402.06" x2="1335.48" y2="-2402.06" xlink:href="#linear-gradient-28"/><linearGradient id="linear-gradient-34" x1="1310.6" y1="-2343.3" x2="1343.14" y2="-2343.3" gradientTransform="matrix(0.48, 0.88, 0.88, -0.48, 1580.88, -2154.42)" gradientUnits="userSpaceOnUse"><stop offset="0" stop-color="#86a8c2"/><stop offset="0.09" stop-color="#8eaec6"/><stop offset="0.22" stop-color="#a4bdd0"/><stop offset="0.39" stop-color="#c8d6e1"/><stop offset="0.54" stop-color="#eff2f4"/><stop offset="0.6" stop-color="#eaedf1"/><stop offset="0.68" stop-color="#dbdfe7"/><stop offset="0.76" stop-color="#c3c8d7"/><stop offset="0.85" stop-color="#a1a7c0"/><stop offset="0.94" stop-color="#777ea3"/><stop offset="1" stop-color="#545c8c"/></linearGradient><linearGradient id="linear-gradient-35" x1="1342.06" y1="-2368.12" x2="1396.67" y2="-2368.12" xlink:href="#linear-gradient-28"/><linearGradient id="linear-gradient-36" x1="1315.25" y1="-2434.78" x2="1337.6" y2="-2434.78" xlink:href="#linear-gradient-28"/><linearGradient id="linear-gradient-38" x1="1288.64" y1="-2383.76" x2="1365.06" y2="-2383.76" xlink:href="#linear-gradient-28"/><linearGradient id="linear-gradient-39" x1="1287.63" y1="2986.78" x2="1328.73" y2="2986.78" xlink:href="#linear-gradient-15"/><filter id="luminosity-noclip-18" x="129.19" y="143.05" width="12.14" height="46.25" filterUnits="userSpaceOnUse" color-interpolation-filters="sRGB"><feFlood flood-color="#fff" result="bg"/><feBlend in="SourceGraphic" in2="bg"/></filter><mask id="mask-18" x="129.19" y="143.05" width="12.14" height="46.25" maskUnits="userSpaceOnUse"><g class="cls-25"><path class="cls-26" d="M135.65,186.83a23.45,23.45,0,0,1-5.54-6.77,14.26,14.26,0,0,1-.91-4.1c-.32-5.72,4.86-7.89,7.31-12.31s3.35-8.08,2.78-12.87c-.36-2.91-2-5.1-3.25-7.73,10,5.73,4,22.9-3.21,27.84-1.8,1.23-2.22,3.45-2.05,5.45.24,2.68,2.08,5.51,4.93,7.57s3.91,4.19,3.76,5.39A32.37,32.37,0,0,1,135.65,186.83Z"/></g></mask><linearGradient id="linear-gradient-40" x1="1321.25" y1="2974.08" x2="1363.47" y2="2974.08" xlink:href="#linear-gradient-27"/><linearGradient id="linear-gradient-41" x1="1317.43" y1="-2406.65" x2="1336.27" y2="-2406.65" xlink:href="#linear-gradient-30"/><linearGradient id="linear-gradient-42" x1="1257.03" y1="-2368.11" x2="1311.64" y2="-2368.11" xlink:href="#linear-gradient-28"/><linearGradient id="linear-gradient-43" x1="1312.43" y1="-2357.65" x2="1340.75" y2="-2357.65" xlink:href="#linear-gradient-28"/><linearGradient id="linear-gradient-44" x1="1292.07" y1="-2507.72" x2="1356.54" y2="-2508.65" gradientTransform="matrix(0.48, 0.88, 0.88, -0.48, 1580.88, -2154.42)" gradientUnits="userSpaceOnUse"><stop offset="0.37" stop-color="#66330a"/><stop offset="0.41" stop-color="#6c3a0c"/><stop offset="0.68" stop-color="#986c19"/><stop offset="0.89" stop-color="#b38b21"/><stop offset="1" stop-color="#bd9724"/></linearGradient><linearGradient id="linear-gradient-45" x1="1293.87" y1="-2382.87" x2="1358.35" y2="-2383.79" gradientTransform="matrix(0.48, 0.88, 0.88, -0.48, 1580.88, -2154.42)" gradientUnits="userSpaceOnUse"><stop offset="0" stop-color="#bd9724"/><stop offset="0.18" stop-color="#b38b21"/><stop offset="0.51" stop-color="#986c19"/><stop offset="0.95" stop-color="#6c3a0c"/><stop offset="1" stop-color="#66330a"/></linearGradient><linearGradient id="linear-gradient-46" x1="1314.97" y1="-2431.67" x2="1339.32" y2="-2431.67" gradientTransform="matrix(0.48, 0.88, 0.88, -0.48, 1580.88, -2154.42)" gradientUnits="userSpaceOnUse"><stop offset="0" stop-color="#ca9724"/><stop offset="0.23" stop-color="#c1851f"/><stop offset="0.68" stop-color="#a95713"/><stop offset="1" stop-color="#97330a"/></linearGradient><linearGradient id="linear-gradient-47" x1="1315.37" y1="-2450.9" x2="1339.22" y2="-2450.9" xlink:href="#linear-gradient-46"/><linearGradient id="linear-gradient-48" x1="1329.59" y1="-2410.68" x2="1336.11" y2="-2410.68" xlink:href="#linear-gradient-46"/><linearGradient id="linear-gradient-49" x1="1314.85" y1="-2414.83" x2="1337.99" y2="-2414.83" xlink:href="#linear-gradient-46"/><linearGradient id="linear-gradient-50" x1="1317.01" y1="-2410.43" x2="1323.53" y2="-2410.43" xlink:href="#linear-gradient-46"/><linearGradient id="linear-gradient-51" x1="1305.79" y1="-2358.28" x2="1347.67" y2="-2358.28" xlink:href="#linear-gradient-46"/><linearGradient id="linear-gradient-52" x1="2290.37" y1="-1363.42" x2="2332.25" y2="-1363.42" gradientTransform="matrix(0.04, 1, 1, -0.04, 1369.3, -2254.55)" xlink:href="#linear-gradient-46"/><linearGradient id="linear-gradient-53" x1="-796.69" y1="-2877.17" x2="-754.81" y2="-2877.17" gradientTransform="matrix(-0.82, -0.58, 0.58, -0.82, 1174.88, -2610.27)" xlink:href="#linear-gradient-46"/><linearGradient id="linear-gradient-54" x1="1293.33" y1="-2420.53" x2="1357.8" y2="-2421.45" xlink:href="#linear-gradient-44"/><linearGradient id="linear-gradient-55" x1="1292.93" y1="-2448.45" x2="1357.4" y2="-2449.38" xlink:href="#linear-gradient-44"/><radialGradient id="radial-gradient-5" cx="1263.03" cy="-2452.17" r="5.67" gradientTransform="matrix(0.76, 1.39, 1.39, -0.76, 2555.81, -3514.51)" gradientUnits="userSpaceOnUse"><stop offset="0" stop-color="#db3333"/><stop offset="0.66" stop-color="#ab0f33"/><stop offset="1" stop-color="#970033"/></radialGradient><linearGradient id="linear-gradient-56" x1="1294.05" y1="-2370.72" x2="1358.54" y2="-2371.64" xlink:href="#linear-gradient-45"/><radialGradient id="radial-gradient-6" cx="1331.9" cy="-2452.17" r="5.67" xlink:href="#radial-gradient-5"/><linearGradient id="linear-gradient-57" x1="1294.07" y1="-2369.35" x2="1358.54" y2="-2370.28" xlink:href="#linear-gradient-45"/><linearGradient id="linear-gradient-58" x1="1311.43" y1="2951.92" x2="1324.52" y2="2951.92" xlink:href="#linear-gradient-15"/><linearGradient id="linear-gradient-59" x1="1256.03" y1="2962.62" x2="1268.9" y2="2962.62" xlink:href="#linear-gradient-15"/><linearGradient id="linear-gradient-60" x1="1293.19" y1="-2430.53" x2="1357.66" y2="-2431.46" xlink:href="#linear-gradient-45"/><linearGradient id="linear-gradient-61" x1="1311.71" y1="-2508.72" x2="1341.23" y2="-2508.72" xlink:href="#linear-gradient-28"/><filter id="luminosity-noclip-19" x="20.45" y="208.28" width="12.89" height="21.22" filterUnits="userSpaceOnUse" color-interpolation-filters="sRGB"><feFlood flood-color="#fff" result="bg"/><feBlend in="SourceGraphic" in2="bg"/></filter><mask id="mask-19" x="20.45" y="208.28" width="12.89" height="21.22" maskUnits="userSpaceOnUse"><g class="cls-3"><path class="cls-4" d="M23.13,225.27c.44-.18.88-.37,1.32-.6a11.06,11.06,0,0,0,5.39-12.39c.66-1.33,1.31-2.66,1.94-4a14.86,14.86,0,0,1-6.1,19.54,14.64,14.64,0,0,1-5.23,1.68Q21.89,227.46,23.13,225.27Z"/></g></mask><linearGradient id="linear-gradient-62" x1="1333.29" y1="3087.81" x2="1341.68" y2="3101.24" xlink:href="#linear-gradient-27"/><linearGradient id="linear-gradient-63" x1="1311.13" y1="3092.65" x2="1312.44" y2="3112.24" xlink:href="#linear-gradient-15"/><radialGradient id="radial-gradient-7" cx="1252.23" cy="3025.73" r="4.93" gradientTransform="matrix(0.78, 1.43, -1.42, 0.77, 3402.39, -3962.1)" xlink:href="#radial-gradient"/><linearGradient id="linear-gradient-64" x1="1319.1" y1="3013.41" x2="1323.8" y2="3013.41" xlink:href="#linear-gradient-25"/><filter id="luminosity-noclip-20" x="86.38" y="170.33" width="14.03" height="7.69" filterUnits="userSpaceOnUse" color-interpolation-filters="sRGB"><feFlood flood-color="#fff" result="bg"/><feBlend in="SourceGraphic" in2="bg"/></filter><mask id="mask-20" x="86.38" y="170.33" width="14.03" height="7.69" maskUnits="userSpaceOnUse"><g class="cls-5"><path class="cls-6" d="M86.4,171.63a7.39,7.39,0,0,0,4.16,5.88l.71.25a7.59,7.59,0,0,0,5.47-.62,7.31,7.31,0,0,0,3.47-4.26c.11-.39.57-2.91-.42-2.51-.46.19-.65,1.1-.94,1.49a9.09,9.09,0,0,1-1.73,1.72,7.44,7.44,0,0,1-4.52,1.55,5.77,5.77,0,0,1-3.95-1.79,6.23,6.23,0,0,1-1.31-1.88C86.84,170.34,86.27,170.34,86.4,171.63Z"/></g></mask><linearGradient id="linear-gradient-65" x1="1330.82" y1="3008.45" x2="1325.17" y2="3022.26" xlink:href="#linear-gradient-26"/><filter id="luminosity-noclip-21" x="87.56" y="172.04" width="12.82" height="6.24" filterUnits="userSpaceOnUse" color-interpolation-filters="sRGB"><feFlood flood-color="#fff" result="bg"/><feBlend in="SourceGraphic" in2="bg"/></filter><mask id="mask-21" x="87.56" y="172.04" width="12.82" height="6.24" maskUnits="userSpaceOnUse"><g class="cls-7"><path class="cls-8" d="M97.74,176.69l.27-.22a6.76,6.76,0,0,0,1.09-1.18c.08-.1.14-.2.21-.28a7.17,7.17,0,0,0,.88-1.91c.06-.23.12-.46.16-.69s0-.24,0-.37a8.07,8.07,0,0,1-6.38,5.6,7.47,7.47,0,0,1-6.44-2.73l0,.12h0c0,.05,0,.09.07.13a5.62,5.62,0,0,0,.82,1.14h0a5.67,5.67,0,0,0,.62.58,6,6,0,0,0,1.41.85,6.55,6.55,0,0,0,.71.26,6.88,6.88,0,0,0,2.08.29l.35,0a7.4,7.4,0,0,0,1.59-.29l.32-.11a7.43,7.43,0,0,0,1.13-.49A7.86,7.86,0,0,0,97.74,176.69Z"/></g></mask><linearGradient id="linear-gradient-66" x1="1331.36" y1="3010.84" x2="1328.47" y2="3020.62" xlink:href="#linear-gradient-27"/><radialGradient id="radial-gradient-8" cx="1252.22" cy="3042.83" r="4.93" gradientTransform="matrix(0.78, 1.43, -1.42, 0.77, 3402.39, -3962.1)" xlink:href="#radial-gradient"/><linearGradient id="linear-gradient-67" x1="1319.1" y1="3041.01" x2="1323.8" y2="3041.01" xlink:href="#linear-gradient-25"/><filter id="luminosity-noclip-22" x="62.16" y="183.58" width="14.03" height="7.68" filterUnits="userSpaceOnUse" color-interpolation-filters="sRGB"><feFlood flood-color="#fff" result="bg"/><feBlend in="SourceGraphic" in2="bg"/></filter><mask id="mask-22" x="62.16" y="183.58" width="14.03" height="7.68" maskUnits="userSpaceOnUse"><g class="cls-9"><path class="cls-10" d="M62.18,184.88a7.4,7.4,0,0,0,4.17,5.87,4.55,4.55,0,0,0,.71.26,7.62,7.62,0,0,0,5.46-.62A7.3,7.3,0,0,0,76,186.12c.12-.39.57-2.9-.42-2.5-.46.19-.64,1.09-.94,1.48a8.54,8.54,0,0,1-1.73,1.72,7.43,7.43,0,0,1-4.52,1.56,5.76,5.76,0,0,1-3.94-1.78,6.38,6.38,0,0,1-1.32-1.89C62.62,183.59,62.05,183.59,62.18,184.88Z"/></g></mask><linearGradient id="linear-gradient-68" x1="1330.82" y1="3036.06" x2="1325.17" y2="3049.86" xlink:href="#linear-gradient-26"/><filter id="luminosity-noclip-23" x="63.35" y="185.28" width="12.82" height="6.24" filterUnits="userSpaceOnUse" color-interpolation-filters="sRGB"><feFlood flood-color="#fff" result="bg"/><feBlend in="SourceGraphic" in2="bg"/></filter><mask id="mask-23" x="63.35" y="185.28" width="12.82" height="6.24" maskUnits="userSpaceOnUse"><g class="cls-11"><path class="cls-12" d="M73.52,189.93a2.65,2.65,0,0,0,.26-.21,7.17,7.17,0,0,0,1.1-1.18c.08-.1.14-.19.21-.29a7,7,0,0,0,.88-1.9,6,6,0,0,0,.16-.68l0-.39a8.08,8.08,0,0,1-6.38,5.61,7.46,7.46,0,0,1-6.43-2.73.61.61,0,0,0,0,.12h0a1.39,1.39,0,0,0,.06.13,5.55,5.55,0,0,0,.83,1.14h0a4.89,4.89,0,0,0,.62.58,6.3,6.3,0,0,0,1.41.85c.22.09.46.18.71.26a7.25,7.25,0,0,0,2.08.28,2.11,2.11,0,0,0,.35,0,7.37,7.37,0,0,0,1.59-.28l.33-.11a7.32,7.32,0,0,0,1.12-.49A6.75,6.75,0,0,0,73.52,189.93Z"/></g></mask><linearGradient id="linear-gradient-69" x1="1331.35" y1="3038.44" x2="1328.47" y2="3048.22" xlink:href="#linear-gradient-27"/><radialGradient id="radial-gradient-9" cx="1403.47" cy="3222.67" r="7.49" gradientTransform="matrix(0.71, 1.3, -1.34, 0.73, 3328.78, -3969.95)" xlink:href="#radial-gradient"/><linearGradient id="linear-gradient-70" x1="1317.22" y1="3100.04" x2="1323.73" y2="3100.04" xlink:href="#linear-gradient-25"/><filter id="luminosity-noclip-24" x="7.35" y="212.11" width="19.96" height="10.87" filterUnits="userSpaceOnUse" color-interpolation-filters="sRGB"><feFlood flood-color="#fff" result="bg"/><feBlend in="SourceGraphic" in2="bg"/></filter><mask id="mask-24" x="7.35" y="212.11" width="19.96" height="10.87" maskUnits="userSpaceOnUse"><g class="cls-15"><path class="cls-16" d="M7.37,214.21a9.9,9.9,0,0,0,5.8,8.1,6.56,6.56,0,0,0,1,.35,11.12,11.12,0,0,0,7.79-1,10.68,10.68,0,0,0,5-6c.17-.54.87-4.06-.54-3.47-.67.27-.95,1.53-1.38,2.08a12.51,12.51,0,0,1-2.49,2.44A10.94,10.94,0,0,1,16.11,219a8,8,0,0,1-5.57-2.4A8.8,8.8,0,0,1,8.71,214C8,212.4,7.21,212.41,7.37,214.21Z"/></g></mask><linearGradient id="linear-gradient-71" x1="1333.63" y1="3092.98" x2="1325.58" y2="3112.66" xlink:href="#linear-gradient-26"/><filter id="luminosity-noclip-25" x="8.95" y="214.48" width="18.3" height="8.86" filterUnits="userSpaceOnUse" color-interpolation-filters="sRGB"><feFlood flood-color="#fff" result="bg"/><feBlend in="SourceGraphic" in2="bg"/></filter><mask id="mask-25" x="8.95" y="214.48" width="18.3" height="8.86" maskUnits="userSpaceOnUse"><g class="cls-17"><path class="cls-18" d="M23.4,221l.37-.31a10.87,10.87,0,0,0,1.59-1.67c.11-.14.2-.27.29-.4A9.94,9.94,0,0,0,27,216c.09-.33.17-.64.23-1,0-.17,0-.35.06-.53a11.89,11.89,0,0,1-9.21,8A10.36,10.36,0,0,1,9,218.76c0,.06.05.11.08.16H9a1,1,0,0,0,.09.18,7.42,7.42,0,0,0,1.14,1.57h0a7.95,7.95,0,0,0,2.86,1.95,9.19,9.19,0,0,0,1,.35,9.63,9.63,0,0,0,2.95.35l.49,0a10.57,10.57,0,0,0,2.27-.43l.46-.16a10.94,10.94,0,0,0,1.61-.71A12.58,12.58,0,0,0,23.4,221Z"/></g></mask><linearGradient id="linear-gradient-72" x1="1334.22" y1="3096.34" x2="1330.09" y2="3110.33" xlink:href="#linear-gradient-27"/><linearGradient id="linear-gradient-73" x1="1314.72" y1="3008.08" x2="1315.71" y2="3058.07" xlink:href="#linear-gradient-15"/><radialGradient id="radial-gradient-10" cx="1293.5" cy="3093.19" r="5.66" gradientTransform="translate(3379.04 -3962.85) rotate(61.32) scale(1.58)" xlink:href="#linear-gradient-25"/><radialGradient id="radial-gradient-11" cx="1293.81" cy="3075.1" r="5.66" gradientTransform="translate(3379.04 -3962.85) rotate(61.32) scale(1.58)" xlink:href="#linear-gradient-25"/><filter id="luminosity-noclip-26" x="40.93" y="169.04" width="75.02" height="37.17" filterUnits="userSpaceOnUse" color-interpolation-filters="sRGB"><feFlood flood-color="#fff" result="bg"/><feBlend in="SourceGraphic" in2="bg"/></filter><mask id="mask-26" x="40.93" y="169.04" width="75.02" height="37.17" maskUnits="userSpaceOnUse"><g class="cls-19"><path class="cls-20" d="M87.35,190.16c-14.58,7.67-39.18,16.92-46.33,16a1.53,1.53,0,0,1,.18-1.29c13.49-1.63,25.56-8.23,37.87-13.9a144.7,144.7,0,0,0,20.24-11.31c5.46-3.66,11.28-6.1,16.23-10.54.15-.14.47,0,.39.2-1.29,3.87-4.91,6.22-8.23,8.34C101,182,94.44,186.43,87.35,190.16Z"/></g></mask><linearGradient id="linear-gradient-74" x1="1334.59" y1="3001.8" x2="1334.59" y2="3069.7" xlink:href="#linear-gradient-27"/></defs><g class="cls-27"><g id="Capa_2" data-name="Capa 2"><g id="_2" data-name="2"><path class="cls-28" d="M119.89,154.62a7.15,7.15,0,0,0,4-1.12c3.35-2.06,7-3.67,10.43-5.57,7.89-4.34,15.77-8.75,23.65-13.12,1.79-1,3.56-2,5.36-3L239.5,90.64,277.72,70.3l38.38-20L278.54,71.81,240.79,93,165,134.9l-5.35,2.91c-7.78,4.23-15.51,8.57-23.37,12.63-3.58,1.86-7.06,3.91-10.61,5.82a9.58,9.58,0,0,0-3.34,2.89L132.1,177C220.64,126.72,392.26,26.59,410.53,3,379.89,3.65,205,86.75,109.64,135.89Z"/><path class="cls-29" d="M205.2,103.89a1.54,1.54,0,0,0-.3,1.26l-24.8,13.57a264.86,264.86,0,0,0,16.82-26.36c8.81-4.26,17.73-8.55,26.67-12.8C217.89,88.25,212,96.64,205.2,103.89Z"/><path class="cls-30" d="M269.4,69.88,238.51,86.77A242.66,242.66,0,0,0,257,63.84c9.8-4.56,19.51-9,29-13.32C280.49,57,275.09,63.68,269.4,69.88Z"/><path class="cls-31" d="M296.55,45.75c27.92-12.52,53.54-23.4,73.77-31.07L281.87,63.06C286.73,57.25,291.54,51.35,296.55,45.75Z"/><path class="cls-32" d="M132.3,177.31c88-49.94,258.22-149.23,278.1-173.57l-287.14,157Z"/><path class="cls-33" d="M134.34,147.93c-3.44,1.9-7.08,3.51-10.43,5.57a7.15,7.15,0,0,1-4,1.12l2.48,4.53a9.58,9.58,0,0,1,3.34-2.89c3.55-1.91,7-4,10.61-5.82,7.86-4.06,15.59-8.4,23.37-12.63L165,134.9,240.79,93l37.75-21.2L316.1,50.28l-38.38,20L239.5,90.64l-76.15,41.19c-1.8,1-3.57,2-5.36,3C150.11,139.18,142.23,143.59,134.34,147.93Z"/><path class="cls-34" d="M109.64,135.89C205,86.75,379.89,3.65,410.53,3,392.26,26.59,220.64,126.72,132.1,177l1.69,3.08C225.93,127.74,408.08,21.32,414.24,2.84A2.14,2.14,0,0,0,414,1.25,2.05,2.05,0,0,0,412.79.12c-21-3.76-205.6,83-304.69,133Z"/><path class="cls-35" d="M402.7,10.57l8-2.9a14.88,14.88,0,0,0,3.5-4.83A2.14,2.14,0,0,0,414,1.25,2.05,2.05,0,0,0,412.79.12c-21-3.76-205.6,83-304.69,133l1.54,2.82C205,86.75,379.89,3.65,410.53,3A55.33,55.33,0,0,1,402.7,10.57Z"/><g class="cls-36"><path class="cls-37" d="M406.64,11.53c-3.12,1.13-6.24,2.24-9.36,3.38-46,35.54-187.53,118-265.18,162l1.69,3.08C216.15,133.29,370.43,43.3,406.64,11.53Z"/></g><path class="cls-38" d="M359,30.69l-.35-.63c-26.41,14.06-52.89,28-79.14,42.36l-64.69,35.34c-21.92,12-43.44,24.49-65.13,36.85-.22.12-.12.38.11.26C171.2,133.61,192.7,122.62,214,111l64.66-35.4C305.52,60.85,332.2,45.71,359,30.69Z"/><g class="cls-39"><path class="cls-40" d="M137.39,145.65c7.14-1.13,11.68-5.13,15.2-10.34-1.57,5.16-3.18,9.88-6.76,11.56a7.93,7.93,0,0,1-4,.37,7.51,7.51,0,0,0-3.81.35,7.3,7.3,0,0,0-.88.52A19.46,19.46,0,0,0,137.39,145.65Z"/></g><path class="cls-41" d="M143.5,156.29c-2.73-4.22-6.08-6.74-11.06-7.62a39.35,39.35,0,0,0-7.12-.37c-3.39,0-6.84,1.47-9.87-.76-.14-.1-.28.08-.19.21,2.52,3.65,8,4.4,12.08,4.23,6.15-.25,11.27.1,16.13,4.34C143.49,156.34,143.51,156.31,143.5,156.29Z"/><path class="cls-42" d="M131.58,162.43a10.26,10.26,0,1,1,4.07-13.93A10.27,10.27,0,0,1,131.58,162.43Z"/><path class="cls-43" d="M120.45,146.17a6.11,6.11,0,0,0-1.1,2.26c-1.48,6,5,8.8,9.27,7,3.32-1.42,6.68-7.67,2.33-10.77A7.9,7.9,0,0,0,120.45,146.17Z"/><g class="cls-44"><path class="cls-45" d="M116.32,154a10.84,10.84,0,0,0,6.15,8.67,9.94,9.94,0,0,0,1,.37,11.35,11.35,0,0,0,8.12-.94,10.85,10.85,0,0,0,5.18-6.33c.17-.57.85-4.3-.61-3.7-.69.29-1,1.62-1.41,2.2a13.31,13.31,0,0,1-2.58,2.56,11.1,11.1,0,0,1-6.72,2.31,8.51,8.51,0,0,1-5.85-2.62,9.55,9.55,0,0,1-2-2.78C117,152,116.11,152,116.32,154Z"/></g><path class="cls-46" d="M121.71,159.2a2.27,2.27,0,0,0-.53.87c-.6,1.58,1,2.55,2.34,2.93,2.91.88,9.69.3,10-3.88.13-1.69-1.8-1.69-2.89-1.32-1.76.6-3.21,1.33-5.14,1.3C124.15,159.09,122.65,158.29,121.71,159.2Z"/><g class="cls-47"><path class="cls-48" d="M133.13,161.39l.4-.32a10.33,10.33,0,0,0,1.63-1.75c.11-.15.21-.29.3-.43a9.79,9.79,0,0,0,1.32-2.82,8.31,8.31,0,0,0,.24-1,5.32,5.32,0,0,0,.06-.56,12.07,12.07,0,0,1-9.51,8.32c-3.64.48-7-1.23-9.55-4,0,.06,0,.12.08.17l.09.2a8.6,8.6,0,0,0,1.22,1.68,8.39,8.39,0,0,0,.93.86,8.64,8.64,0,0,0,3.15,1.63,9.9,9.9,0,0,0,3.09.41l.51,0a10.4,10.4,0,0,0,2.37-.44l.48-.15a10.76,10.76,0,0,0,1.67-.74A11.46,11.46,0,0,0,133.13,161.39Z"/></g><path class="cls-49" d="M123.2,146.68a1,1,0,0,0-1.26-.55,1,1,0,0,0-.39,1.3,1,1,0,0,0,1.27.55A1,1,0,0,0,123.2,146.68Z"/><path class="cls-49" d="M132.33,147c-2.31-1.71-6.44-2.18-7.73-1.59s-.6,2.74.79,2.33c1.08-.31,5.24-1.48,6.91-.69C132.33,147,132.36,147,132.33,147Z"/><path class="cls-50" d="M137.67,162a12.81,12.81,0,1,1,5.09-17.38A12.8,12.8,0,0,1,137.67,162Z"/><path class="cls-51" d="M136.55,164.19c-2.22.24-4.73-6.43-5.61-14.89s.21-15.49,2.43-15.72S138.1,140,139,148.47,138.77,164,136.55,164.19Z"/><path class="cls-52" d="M151.38,158.82c-1.33,1.78-9-1.63-17.1-7.63s-13.63-12.32-12.3-14.11,9,1.61,17.1,7.62S152.7,157,151.38,158.82Z"/><path class="cls-53" d="M44.27,204.28a29.11,29.11,0,0,1-3.68.39,4.89,4.89,0,0,0-3.54-6.35,27.21,27.21,0,0,1,2.34-2.95c.7,1.54,1.44,3.07,2.24,4.55S43.34,202.86,44.27,204.28Z"/><path class="cls-54" d="M58.88,200.2c-2.2.79-5.43,2.63-7.73,1.74S48,199.08,47,197.11c-.81-1.46-1.89-3.12-2.06-4.74-.34-3.33,3.65-5.44,5.83-7.12A65.16,65.16,0,0,0,54.31,193,66.07,66.07,0,0,0,58.88,200.2Z"/><path class="cls-55" d="M62.36,198.89l-1.14.45a63.76,63.76,0,0,1-4.8-7.49,61.71,61.71,0,0,1-3.72-8.09l1-.73a63.29,63.29,0,0,0,3.78,8.23A65.69,65.69,0,0,0,62.36,198.89Z"/><path class="cls-56" d="M48.07,203.51l-1.28.29c-1-1.53-2-3.19-3-5s-1.86-3.59-2.59-5.27l.94-.92c.82,1.9,1.7,3.79,2.7,5.61S46.91,201.8,48.07,203.51Z"/><path class="cls-57" d="M31.53,205.46a16.89,16.89,0,0,0-2.26-3.16,8.61,8.61,0,0,0,6.37-1.84A2.76,2.76,0,0,1,38,204.8a9.11,9.11,0,0,0-5,4.41A17,17,0,0,0,31.53,205.46Z"/><path class="cls-58" d="M109.22,163c-.79-1.45-3.85-5-3.34-7.26a2.19,2.19,0,0,1,1.68-1.57c1,1.84,1.85,3.78,2.86,5.64.07.1.78,1.39,1.12,1.92s.95,1.86,1,2c1,1.84,2.07,3.62,3.18,5.39.3.45-1.72.38-1.85.33C111.22,168.45,110.43,165.18,109.22,163Z"/><path class="cls-59" d="M163.47,131.69a16,16,0,0,1-6-.14A44.45,44.45,0,0,0,163.47,131.69Z"/><path class="cls-60" d="M157.74,205.09a15.77,15.77,0,0,1,1.62,10c11.14-8.07,18.81-19.74,23.84-36.31-9.86,6.31-15.63,8.6-21.6,6.15a.69.69,0,0,1-.15-.07,97.12,97.12,0,0,1-12-8.26,42,42,0,0,1-8.42-9.94,12.93,12.93,0,0,1-1.26-3.11,32.83,32.83,0,0,1-5.82,7.93,4.48,4.48,0,0,0-1.38,3.57c.17,2,1.68,4.19,4,5.83,3.4,2.47,5.78,6.58,5.27,9a3.82,3.82,0,0,1-1.65,2.38A94.83,94.83,0,0,0,154,201.16,9.2,9.2,0,0,1,157.74,205.09Zm4.39-3.49c-1.17-2.14-3.85-3.84-6.95-5.82-2.87-1.84-7.19-3.33-9.89-6.23a1.21,1.21,0,0,1,1.52-1.84c6.8,4.21,24.39,2.84,27.84.32a1.21,1.21,0,0,1,1.36,0,1.3,1.3,0,0,1,.41.43,1.23,1.23,0,0,1,.12.82c-1,5-8.91,16.59-13.42,18.57a1.21,1.21,0,0,1-1.26-.19,1.18,1.18,0,0,1-.39-1.21C161.89,204.79,162.82,202.87,162.13,201.6Z"/><path class="cls-61" d="M97.26,158.21c-3,.23-5.68,1.85-8.38,3.08C85,163,81.31,165,77.6,167c-4.1,2.24-8.18,4.57-12.11,7.13-3,2-6.24,3.57-8.57,6.4-2.11,2.56,1.07,7.46,2.38,9.85,1.63,3,3.14,7.2,7.16,6.61,3-.45,5.9-2.34,8.61-3.62q6.72-3.18,13.22-6.74,5.8-3.18,11.43-6.64c2.3-1.42,5-2.42,6.69-4.67,2.09-2.82-1.06-6.92-2.47-9.51C102.61,163.42,100.53,158,97.26,158.21ZM65.43,177.59c4.37-2.39,8.72-1.19,11.11,3.17s1.42,9.59-2.94,12-9.36.65-11.75-3.71S61.05,180,65.43,177.59ZM89.56,164a8.29,8.29,0,0,1,11.67,3.34,8.76,8.76,0,0,1-3.35,12.08c-4.36,2.38-9.31.52-11.71-3.85A8.21,8.21,0,0,1,89.56,164Z"/><path class="cls-61" d="M97.26,158.21c-3,.23-5.68,1.85-8.38,3.08C85,163,81.31,165,77.6,167c-4.1,2.24-8.18,4.57-12.11,7.13-3,2-6.24,3.57-8.57,6.4-2.11,2.56,1.07,7.46,2.38,9.85,1.63,3,3.14,7.2,7.16,6.61,3-.45,5.9-2.34,8.61-3.62q6.72-3.18,13.22-6.74,5.8-3.18,11.43-6.64c2.3-1.42,5-2.42,6.69-4.67,2.09-2.82-1.06-6.92-2.47-9.51C102.61,163.42,100.53,158,97.26,158.21ZM65.43,177.59c4.37-2.39,8.72-1.19,11.11,3.17s1.42,9.59-2.94,12-9.36.65-11.75-3.71S61.05,180,65.43,177.59ZM89.56,164a8.29,8.29,0,0,1,11.67,3.34,8.76,8.76,0,0,1-3.35,12.08c-4.36,2.38-9.31.52-11.71-3.85A8.21,8.21,0,0,1,89.56,164Z"/><path class="cls-62" d="M103.24,123.22a1.8,1.8,0,0,0-1.77.5,95,95,0,0,0,11.06,34.9c.07.11.81,1.42,1.08,1.85a.71.71,0,0,1,.08.15c.21.45.91,1.79,1,1.9a95.15,95.15,0,0,0,23.42,28.14,1.78,1.78,0,0,0,1.38-1.22c.25-1.17-.83-3.4-3.75-5.53s-4.69-4.89-4.93-7.57a6.83,6.83,0,0,1,2.05-5.45c9.34-9.64,8.27-19.27,6.42-24.08-3.05-4.15-10.81-10.67-24-8a6.87,6.87,0,0,1-5.71-1.22c-2.12-1.64-3.5-4.72-3.71-8.23S104.37,123.65,103.24,123.22ZM121,142.91a11.94,11.94,0,1,1-4.74,16.2A12,12,0,0,1,121,142.91Z"/><path class="cls-63" d="M104.3,124.11c1.75,11.56,4.71,24,9.67,34.71a35.37,35.37,0,0,0,1,4.27c-.12-.19-.23-.38-.34-.57s-.76-1.45-1-1.9a.71.71,0,0,0-.08-.15c-.27-.43-1-1.74-1.08-1.85a95,95,0,0,1-11.06-34.9,1.8,1.8,0,0,1,1.77-.5A2.7,2.7,0,0,1,104.3,124.11Z"/><g class="cls-64"><path class="cls-65" d="M135.65,186.83a23.45,23.45,0,0,1-5.54-6.77,14.26,14.26,0,0,1-.91-4.1c-.32-5.72,4.86-7.89,7.31-12.31s3.35-8.08,2.78-12.87c-.36-2.91-2-5.1-3.25-7.73,10,5.73,4,22.9-3.21,27.84-1.8,1.23-2.22,3.45-2.05,5.45.24,2.68,2.08,5.51,4.93,7.57s3.91,4.19,3.76,5.39A32.37,32.37,0,0,1,135.65,186.83Z"/></g><path class="cls-66" d="M110,173.29a65.37,65.37,0,0,0-9-16.53l1.13-.46a62.87,62.87,0,0,1,5,7.82,61.64,61.64,0,0,1,3.86,8.47Z"/><path class="cls-67" d="M121.43,130.5a39.75,39.75,0,0,1-2-8.81,95.92,95.92,0,0,1-.49-14.53.86.86,0,0,1,0-.16c1.17-6.35,6.21-10,16.84-14.87-16.67-4.7-30.63-4.55-43.43.48a15.81,15.81,0,0,1,7.57,6.77,9.38,9.38,0,0,1,1.3,5.24,94.15,94.15,0,0,0,0,16.45,3.82,3.82,0,0,1,2.89-.1c2.33.89,4.51,5.11,4.75,9.31.16,2.78,1.23,5.26,2.78,6.46a4.47,4.47,0,0,0,3.75.77,33,33,0,0,1,9.82-.62C123.63,136.74,121.83,131.64,121.43,130.5Zm-14-11.66a1.21,1.21,0,0,1-1.31-.89c-1-3.83.08-8.28.09-11.68,0-3.68,0-6.86-1.16-9-.69-1.27-2.81-1.52-4.39-2a1.19,1.19,0,0,1-.82-1,1.2,1.2,0,0,1,.52-1.17c4.1-2.72,18.12-3.15,22.89-1.28a1.22,1.22,0,0,1,.61.55,1.25,1.25,0,0,1,.15.58,1.21,1.21,0,0,1-.77,1.12c-4,1.54-14.62,15.62-14.75,23.62A1.2,1.2,0,0,1,107.44,118.84Z"/><path class="cls-68" d="M137.86,130.88c3.57-2.25,9.55-.48,15.14,1.12a49.71,49.71,0,0,0,9.21,2c-1.38,2.63-3.54,6.39-4.46,9.46-1.67,5.58-3.25,10.84-7.07,12.63a8,8,0,0,1-4,.38,7.3,7.3,0,0,0-3.81.35,6.8,6.8,0,0,0-.88.52,21,21,0,0,0-.93-10.75l-.88-1.6a24,24,0,0,0-9.25-6.85,8.77,8.77,0,0,0,.92-.46,12.69,12.69,0,0,0,3.55-3.64A8,8,0,0,1,137.86,130.88Z"/><path class="cls-69" d="M26.85,208a11,11,0,1,0-4.39,15A11,11,0,0,0,26.85,208Zm-1.66.84c2.29,4.17.29,9.75-3.88,12s-9.85.91-12.14-3.26a9.4,9.4,0,0,1,3.71-12.26A9.38,9.38,0,0,1,25.19,208.85Z"/><path class="cls-70" d="M121,142.91a11.94,11.94,0,1,0,16.2,4.75A12,12,0,0,0,121,142.91Zm.58,1.06a10.64,10.64,0,0,1,14.1,4.45c2.52,4.61.24,10.81-4.37,13.33s-11,1.05-13.5-3.56C115,153.09,117,146.49,121.58,144Z"/><path class="cls-71" d="M97.53,180.68a1.1,1.1,0,0,0-1.51-.45,1.13,1.13,0,0,0-.5.56,5.22,5.22,0,0,0-1.11-.55,1.11,1.11,0,0,0-1.35-1.72,1.12,1.12,0,0,0-.49,1.43,5.17,5.17,0,0,0-1,.12,8.38,8.38,0,0,0,.14-2.42l0-.39a1.09,1.09,0,0,0,1.21.1,1.11,1.11,0,1,0-1.07-2,1.18,1.18,0,0,0-.28.22,10,10,0,0,1,.06-2.13,1.1,1.1,0,0,0,.75-.11,1,1,0,1,0-.94-1.71,1.09,1.09,0,0,0-.49.57,9,9,0,0,1-1.82-1.1,1,1,0,0,0,.32-.12,1.1,1.1,0,0,0,.45-1.51,1.11,1.11,0,0,0-1.51-.44,1.1,1.1,0,0,0-.57,1.07l-.31-.23a8.57,8.57,0,0,0-2.1-1.19,5.13,5.13,0,0,0,.65-.81,1.11,1.11,0,0,0,1.9-1.14,1.07,1.07,0,0,0-1.16-.55,4.72,4.72,0,0,0,.14-1.24,1.15,1.15,0,0,0,.74-.12,1.11,1.11,0,1,0-1.07-2l-.09.05a4.86,4.86,0,0,0-.46-.84l-1.19.79a3,3,0,0,1,.54,1.51,4.12,4.12,0,0,1-.66,2.78,3,3,0,0,1-1.24,1.14c-.24.11-1,.55-1.23.37l-.71-.46a2.72,2.72,0,0,0,1.61-1.12,3.29,3.29,0,0,0,.56-2.2,3.4,3.4,0,0,0-.35-1.09l-.72.44a1.77,1.77,0,0,1,.18.7c.13,1.84-1.21,2.29-2.62,2.6a6.84,6.84,0,0,0-2.09-.48c.24-.2.48-.4.7-.62-2.07,1.15-4.17,2.24-6.27,3.34a5,5,0,0,0-.79,1.94l-.64-1.19-.78.42,11.28,20.63.77-.44-.71-1.29a5.14,5.14,0,0,0,2.57.34c1.52-.71,3.08-1.35,4.61-2,1.15-.52,2.28-1.1,3.38-1.72a10.14,10.14,0,0,0-3.21.57,6.87,6.87,0,0,0,.72-2c1-1,2.12-1.9,3.61-.8a1.82,1.82,0,0,1,.72,1.14l.74-.49a3.19,3.19,0,0,0-.94-1.37,3.3,3.3,0,0,0-2.15-.71,2.76,2.76,0,0,0-1.82.74c0-.27,0-.56,0-.84s.76-.69,1-.83a3,3,0,0,1,1.64-.43,4.1,4.1,0,0,1,2.7.94,3.18,3.18,0,0,1,1.06,1.48L97.4,183a5,5,0,0,0-.41-.75l.1,0A1.1,1.1,0,0,0,97.53,180.68ZM82.8,171.16a26.71,26.71,0,0,1,2.56,3.94,1.23,1.23,0,0,0-.48.13,1.16,1.16,0,0,0-.38.35,2.5,2.5,0,0,0-.68-.42,4,4,0,0,0-3.91.24,10.54,10.54,0,0,0-3,3.5c-.22.39-.46.77-.69,1.16L74.57,177a3.35,3.35,0,0,0,1.24.25,3.55,3.55,0,0,0,2.63-1.1,8.89,8.89,0,0,1,2.13-2.24c.81-.47,1.25-.21,2.07,0s.72-.67.4-1.22a2.34,2.34,0,0,0-2.35-1.18,2.74,2.74,0,0,0-1.3.48,2.48,2.48,0,0,0,.06-2.28c-.31-.52-.89-.9-1.42-.43s-.11.92.23,1.37a1.43,1.43,0,0,1,.2,1.36,3,3,0,0,0-.38-.31,1.88,1.88,0,0,0-1.18-.29c-1.36.07-2.35.88-1.92,2.33a.73.73,0,0,0,1.34.2c.18-.35,0-1-.52-.87.07-1,1-.76,1.26-.69a1.52,1.52,0,0,1,.74,1.26,2.13,2.13,0,0,1-1.3,2.06,2.74,2.74,0,0,1-2.86-1.26,3.69,3.69,0,0,1,.16-3.9,3.85,3.85,0,0,1,2.44-1.85A7.55,7.55,0,0,1,82.8,171.16ZM79.31,178c.79-1,1.86-2,3.23-1.7a2.18,2.18,0,0,1,1.18.69,2.31,2.31,0,0,1,0,1.37c-.46,1.33-2,1.65-3.18,1.8a16.83,16.83,0,0,1-2.56,0A16.52,16.52,0,0,1,79.31,178Zm10.34,2.9a29.37,29.37,0,0,0-2.38-5.29,1.1,1.1,0,0,0,1.07,0,1,1,0,1,0-1-1.78,1.09,1.09,0,0,0-.57.91,28.91,28.91,0,0,0-3.18-4.86c2-.13,3.78,2,5.33,3.06a8.13,8.13,0,0,0,1.06.6,9.65,9.65,0,0,0-.07,1.22C90,176.62,90.83,179.28,89.65,180.89Zm-3,6.88a3.85,3.85,0,0,1-2.89,1.06,3.68,3.68,0,0,1-3.36-2,2.74,2.74,0,0,1,.49-3.08,2.12,2.12,0,0,1,2.43,0,1.51,1.51,0,0,1,.66,1.3c0,.22-.35,1.19-1.25.7.34-.38-.07-.88-.46-.91a.73.73,0,0,0-.55,1.23c1,1.14,2.2.75,3-.36a2,2,0,0,0,.39-1.16,4.13,4.13,0,0,0-.06-.48,1.43,1.43,0,0,1,1,.91c.2.53.29,1.15,1,.93s.67-.88.4-1.42a2.42,2.42,0,0,0-1.95-1.18,2.75,2.75,0,0,0,1.1-.84,2.37,2.37,0,0,0,.29-2.62c-.3-.57-1-1.19-1.26-.32s-.27,1.32-1.11,1.75a8.8,8.8,0,0,1-3,.57,3.56,3.56,0,0,0-2.35,1.63,3.62,3.62,0,0,0-.46,1.17l-1.7-3.09,1.36,0A10.26,10.26,0,0,0,83,181a4,4,0,0,0,2.32-3.16,2.39,2.39,0,0,0,0-.8,1,1,0,0,0,.5-.14,1,1,0,0,0,.37-.32,28.3,28.3,0,0,1,1.94,4.27A7.59,7.59,0,0,1,86.7,187.77Z"/><path class="cls-72" d="M79.12,193.23a5.18,5.18,0,0,0,1.09-2.35l.71,1.29.79-.42L70.42,171.12l-.77.44.65,1.18a5.22,5.22,0,0,0-2.06-.37c-2,1.17-4.11,2.35-6.19,3.47a9.26,9.26,0,0,0,.9-.26,6.4,6.4,0,0,0-.72,2c-1,1-2.13,1.9-3.61.8a1.63,1.63,0,0,1-.48-.54l-.77.37a3.57,3.57,0,0,0,.73.89,3.31,3.31,0,0,0,2.16.71,2.76,2.76,0,0,0,1.81-.74q0,.41,0,.84c0,.31-.75.69-1,.83a3,3,0,0,1-1.63.43,4.12,4.12,0,0,1-2.7-.94,3.27,3.27,0,0,1-.79-.93c-.38.3-.77.58-1.17.86a1.59,1.59,0,0,0,.13.22l-.09.05a1.11,1.11,0,0,0-.43,1.51,1.09,1.09,0,0,0,1.5.43,1,1,0,0,0,.49-.55,4.82,4.82,0,0,0,1.12.54,1.11,1.11,0,0,0,1.35,1.73,1.1,1.1,0,0,0,.48-1.43,5.25,5.25,0,0,0,1-.11,7.94,7.94,0,0,0-.14,2.41l0,.38a1.13,1.13,0,0,0-1.21-.09,1.11,1.11,0,0,0,1.07,1.95,1.18,1.18,0,0,0,.27-.22,10,10,0,0,1-.05,2.13,1.06,1.06,0,0,0-.74.11,1.1,1.1,0,0,0-.51,1.38,1.1,1.1,0,0,0,1.93-.23,9.25,9.25,0,0,1,1.83,1.08,1.25,1.25,0,0,0-.34.12,1.12,1.12,0,0,0,1.07,2,1.11,1.11,0,0,0,.57-1.07l.31.22a7.72,7.72,0,0,0,2.11,1.19,6.4,6.4,0,0,0-.67.81,1.08,1.08,0,0,0-1.45-.36,1.1,1.1,0,0,0,.72,2.06,4.72,4.72,0,0,0-.14,1.24,1.08,1.08,0,0,0-.74.12,1.1,1.1,0,0,0-.44,1.5,1.11,1.11,0,0,0,1.5.45l.09-.06a10.42,10.42,0,0,0,1.34-.54,3.46,3.46,0,0,1-.23-.91,4.17,4.17,0,0,1,.67-2.79,3.09,3.09,0,0,1,1.25-1.13c.23-.11,1-.55,1.22-.37l.7.46a2.7,2.7,0,0,0-1.6,1.12,3.31,3.31,0,0,0-.56,2.2,3.1,3.1,0,0,0,.18.68l.8-.36a1.44,1.44,0,0,1-.1-.37c-.12-1.84,1.22-2.29,2.62-2.61a6.84,6.84,0,0,0,2.1.49,11.32,11.32,0,0,0-1.08,1l3.55-1.47C77.25,194.44,78.18,193.81,79.12,193.23ZM62.29,181.74a30.13,30.13,0,0,0,2.38,5.3,1.06,1.06,0,1,0-.1,1.76,1.11,1.11,0,0,0,.58-.9,28.62,28.62,0,0,0,3.17,4.86c-2,.12-3.78-2-5.32-3.06a7.28,7.28,0,0,0-1.08-.6,8.07,8.07,0,0,0,.08-1.22C62,186,61.11,183.36,62.29,181.74Zm12.54-.7-1.35,0a10.26,10.26,0,0,0-4.53.6,4,4,0,0,0-2.32,3.16,2.15,2.15,0,0,0,0,.8,1.13,1.13,0,0,0-.5.13,1.19,1.19,0,0,0-.37.33,27.3,27.3,0,0,1-1.94-4.27,7.58,7.58,0,0,1,1.43-6.88,3.88,3.88,0,0,1,2.88-1.07,3.7,3.7,0,0,1,3.36,2,2.73,2.73,0,0,1-.48,3.09,2.14,2.14,0,0,1-2.44,0,1.53,1.53,0,0,1-.66-1.3c.07-.22.37-1.19,1.26-.7-.34.38.07.88.45.91a.73.73,0,0,0,.56-1.23c-1-1.14-2.2-.75-3,.36a2.09,2.09,0,0,0-.39,1.15c0,.05,0,.27.06.49a1.37,1.37,0,0,1-1-.9c-.21-.54-.29-1.17-1-.95s-.67.89-.4,1.43a2.41,2.41,0,0,0,2,1.18,2.91,2.91,0,0,0-1.12.84,2.37,2.37,0,0,0-.27,2.62c.29.56,1,1.19,1.24.32s.28-1.32,1.12-1.74a8.54,8.54,0,0,1,3-.58,3.56,3.56,0,0,0,2.81-2.81ZM74,182.49a16.29,16.29,0,0,1-1.4,2.16c-.78.95-1.86,2-3.23,1.71a2.29,2.29,0,0,1-1.17-.7,2.23,2.23,0,0,1,0-1.37c.46-1.33,2-1.66,3.17-1.8A17.09,17.09,0,0,1,74,182.49ZM75.7,194a7.6,7.6,0,0,1-6.57-2.51,26.86,26.86,0,0,1-2.55-3.94,1,1,0,0,0,.48-.14,1,1,0,0,0,.38-.34,2.74,2.74,0,0,0,.67.43,4.1,4.1,0,0,0,3.93-.26A10.35,10.35,0,0,0,75,183.74l.7-1.16,1.69,3.09a3.59,3.59,0,0,0-3.88.86,8.51,8.51,0,0,1-2.12,2.24c-.81.48-1.25.21-2.07,0s-.72.67-.4,1.22a2.35,2.35,0,0,0,2.35,1.18,2.74,2.74,0,0,0,1.3-.48,2.42,2.42,0,0,0,0,2.28c.31.52.88.9,1.41.43s.11-.92-.23-1.38a1.38,1.38,0,0,1-.2-1.35c.16.15.33.28.37.31a2,2,0,0,0,1.18.3c1.37-.09,2.36-.89,1.92-2.34a.72.72,0,0,0-1.32-.2c-.18.34,0,1,.51.87-.07,1-1,.76-1.26.69a1.55,1.55,0,0,1-.74-1.27,2.12,2.12,0,0,1,1.3-2.05,2.74,2.74,0,0,1,2.86,1.26,3.69,3.69,0,0,1-.15,3.89A3.9,3.9,0,0,1,75.7,194Z"/><g class="cls-73"><path class="cls-74" d="M107.41,171.8a1.53,1.53,0,0,0,.28,1c.34.46.82.86.24,1.37s-1.12.09-1.43-.42a2.45,2.45,0,0,1,.07-2.29,2.94,2.94,0,0,1-1.31.49,2.37,2.37,0,0,1-2.35-1.18c-.32-.56-.49-1.46.4-1.23s1.26.48,2.07,0a3.88,3.88,0,0,0,.85-.69C106.6,169.85,107,170.83,107.41,171.8Z"/><path class="cls-75" d="M96.08,159.89c0,.29,0,.57,0,.85s-.75.7-1,.84a3.12,3.12,0,0,1-1.62.43,4.06,4.06,0,0,1-2.71-.95,3.14,3.14,0,0,1-.79-.93q-.57.45-1.17.87c.05.07.08.14.13.22l-.09,0a1.11,1.11,0,1,0,1.56,1.39,5.06,5.06,0,0,0,1.12.55,1.11,1.11,0,0,0,1.35,1.72,1.1,1.1,0,0,0,.48-1.43,5.17,5.17,0,0,0,1-.11,8,8,0,0,0-.14,2.42c0,.12,0,.25,0,.38a1.11,1.11,0,1,0-.14,1.86,1.51,1.51,0,0,0,.28-.22,8.77,8.77,0,0,1-.07,2.12,1.08,1.08,0,0,0-.74.11,1,1,0,1,0,.94,1.71,1.11,1.11,0,0,0,.49-.56,9.6,9.6,0,0,1,1.83,1.09,1.06,1.06,0,0,0-.34.12,1.11,1.11,0,1,0,1.64.88l.31.23a8.11,8.11,0,0,0,2.11,1.19,5.08,5.08,0,0,0-.66.81,1.11,1.11,0,1,0-.74,1.7,5,5,0,0,0-.14,1.23,1.15,1.15,0,0,0-.74.12,1.11,1.11,0,1,0,1.07,2l.08-.05a12.09,12.09,0,0,0,1.34-.54,3.28,3.28,0,0,1-.22-.91,4.13,4.13,0,0,1,.66-2.8,3.09,3.09,0,0,1,1.25-1.13c.23-.11,1-.55,1.23-.37s.46.32.7.47a2.73,2.73,0,0,0-1.61,1.11,3.31,3.31,0,0,0-.56,2.2,3.1,3.1,0,0,0,.18.68l.8-.36a2,2,0,0,1-.1-.37c-.12-1.84,1.22-2.29,2.63-2.6a6.77,6.77,0,0,0,2.08.48,1.45,1.45,0,0,1-.18.17c.52-.32,1-.66,1.52-1-.11-.21-.23-.41-.34-.63a7.78,7.78,0,0,1-5.72-2.57,27,27,0,0,1-2.54-3.94,1,1,0,0,0,.46-.13,1.11,1.11,0,0,0,.39-.35,2.53,2.53,0,0,0,.68.43,4.08,4.08,0,0,0,3.81-.19c-.18-.48-.37-1-.53-1.44a2.36,2.36,0,0,1-2,.5,2.19,2.19,0,0,1-1.18-.7,2.23,2.23,0,0,1,0-1.37,2.49,2.49,0,0,1,1.73-1.5c-.25-.43-.5-.86-.76-1.29l-.29.1a4.06,4.06,0,0,0-2.33,3.16,2.68,2.68,0,0,0,0,.8,1.11,1.11,0,0,0-.5.14,1.06,1.06,0,0,0-.37.33,26.77,26.77,0,0,1-1.94-4.28,7.66,7.66,0,0,1,1.28-6.69l-.28-.47c0-.08-.06-.15-.09-.22-.89.5-1.77,1-2.66,1.48.29-.08.59-.16.89-.26a7,7,0,0,0-.72,2c-1,1-2.13,1.9-3.61.8a1.89,1.89,0,0,1-.49-.53l-.76.37a3.76,3.76,0,0,0,.73.89,3.36,3.36,0,0,0,2.16.71A2.73,2.73,0,0,0,96.08,159.89Zm.22,2.65a29.08,29.08,0,0,0,2.38,5.3,1.1,1.1,0,0,0-1.07,0,1,1,0,1,0,1,1.78,1.09,1.09,0,0,0,.57-.91,29.35,29.35,0,0,0,3.18,4.86c-2,.13-3.78-2-5.32-3.06a8.23,8.23,0,0,0-1.08-.59,7,7,0,0,0,.08-1.23C96,166.82,95.12,164.16,96.3,162.54Z"/><path class="cls-76" d="M101.31,162.13c-.84.42-.86.94-1.12,1.74s-.94.24-1.24-.32a2.35,2.35,0,0,1,.27-2.61,2.72,2.72,0,0,1,1.12-.84,2.46,2.46,0,0,1-2-1.18c-.27-.54-.28-1.23.4-1.43s.83.41,1,.94a1.41,1.41,0,0,0,1,.9,4.13,4.13,0,0,1-.06-.48c0-.09,0-.16,0-.24.69,1,1.38,2,2,3.09A4.51,4.51,0,0,0,101.31,162.13Z"/></g><path class="cls-77" d="M152.52,155.48c.35-.33.7-.68,1-1a5.77,5.77,0,0,0-1.38-.74,15.34,15.34,0,0,1,2.62-.91c.35-.53.68-1.08,1-1.65a10.13,10.13,0,0,0-2.47.55,7,7,0,0,0,.72-2c.88-.86,1.81-1.63,3-1.15.11-.27.22-.55.34-.83a3.82,3.82,0,0,0-1.36-.26,2.76,2.76,0,0,0-1.81.76,8.07,8.07,0,0,0,0-.85c0-.31.76-.69,1-.83a3,3,0,0,1,1.62-.44,4,4,0,0,1,1.15.16c.32-.85.65-1.71,1-2.57a1.11,1.11,0,0,0-1.52-.51,1.13,1.13,0,0,0-.49,1.44,5.05,5.05,0,0,0-1,.11,8.66,8.66,0,0,0,.13-2.41l0-.38a1.13,1.13,0,0,0,1.21.09,1.11,1.11,0,0,0,.44-1.51,1.12,1.12,0,0,0-1.51-.44,1.18,1.18,0,0,0-.28.22,8.86,8.86,0,0,1,.07-2.13,1.08,1.08,0,0,0,.74-.11,1.11,1.11,0,0,0,.5-1.38,1.12,1.12,0,0,0-1.44-.33,1.09,1.09,0,0,0-.49.57,9.29,9.29,0,0,1-1.82-1.1,1.1,1.1,0,0,0,.33-.12,1.11,1.11,0,0,0-1.06-1.95,1.12,1.12,0,0,0-.59,1.07l-.3-.23a8.91,8.91,0,0,0-2.1-1.19,6.15,6.15,0,0,0,.65-.8,1.11,1.11,0,1,0,.74-1.7s0-.08,0-.11c-.49-.08-1-.16-1.48-.26a3.81,3.81,0,0,1-.58,1.36,3.12,3.12,0,0,1-1.25,1.14c-.23.1-1,.54-1.22.36s-.47-.32-.71-.46a2.74,2.74,0,0,0,1.62-1.12,3.54,3.54,0,0,0,.57-1.59l-.92-.18c-.08,1.52-1.3,1.94-2.61,2.22a6.84,6.84,0,0,0-2.09-.48,10,10,0,0,0,2.09-2.21c-.57-.08-1.14-.15-1.69-.18a13.73,13.73,0,0,1-2.71,2.26,6.13,6.13,0,0,0,.08-2.1,8.5,8.5,0,0,0-1.37.39,2.45,2.45,0,0,1-2.09,2.79,1.94,1.94,0,0,1-1.43-.22,12.82,12.82,0,0,0-1.28,1.72,1.13,1.13,0,0,0-.1.13l13.14,24a11.89,11.89,0,0,0,1.83-.58,2.06,2.06,0,0,1,.57-1.8A2.35,2.35,0,0,1,152.52,155.48ZM136,136.39l-1.53-2.8a5.6,5.6,0,0,0,2.83.2A5.31,5.31,0,0,0,136,136.39Zm11.09-.6a27.73,27.73,0,0,1,2.55,3.94,1.14,1.14,0,0,0-.47.13,1,1,0,0,0-.39.35,2.62,2.62,0,0,0-.68-.43,4,4,0,0,0-3.91.26,10.27,10.27,0,0,0-3,3.49l-.69,1.16-1.7-3.1a3.35,3.35,0,0,0,1.24.25,3.55,3.55,0,0,0,2.64-1.1,8.69,8.69,0,0,1,2.12-2.24c.81-.48,1.26-.21,2.07,0s.71-.67.4-1.22A2.34,2.34,0,0,0,145,136.1a2.72,2.72,0,0,0-1.31.49,2.45,2.45,0,0,0,.07-2.29c-.31-.52-.89-.9-1.42-.43s-.11.92.23,1.38a1.38,1.38,0,0,1,.2,1.35l-.37-.31a2,2,0,0,0-1.18-.3c-1.37.08-2.36.89-1.93,2.34a.73.73,0,0,0,1.34.2c.17-.34,0-1-.52-.87.06-1,1.05-.76,1.26-.69a1.56,1.56,0,0,1,.75,1.26,2.13,2.13,0,0,1-1.31,2.05,2.73,2.73,0,0,1-2.86-1.25,3.69,3.69,0,0,1,.15-3.89,3.88,3.88,0,0,1,2.45-1.86A7.58,7.58,0,0,1,147.11,135.79Zm-3.5,6.82c.79-.94,1.87-2,3.23-1.7a2.26,2.26,0,0,1,1.18.7A2.16,2.16,0,0,1,148,143c-.46,1.33-1.95,1.65-3.17,1.8a17,17,0,0,1-2.57,0A16.93,16.93,0,0,1,143.61,142.61ZM154,145.53a29.08,29.08,0,0,0-2.38-5.3,1,1,0,1,0-.47-.86,29.15,29.15,0,0,0-3.18-4.86c2-.13,3.78,2,5.33,3.06a8.22,8.22,0,0,0,1.07.6,6.07,6.07,0,0,0-.07,1.22C154.28,141.25,155.13,143.91,154,145.53Zm-5.83,7.93a3.67,3.67,0,0,1-3.36-2,2.72,2.72,0,0,1,.48-3.08,2.14,2.14,0,0,1,2.43,0,1.56,1.56,0,0,1,.67,1.31c-.06.22-.37,1.19-1.26.7.34-.37-.07-.87-.46-.91a.72.72,0,0,0-.55,1.22c1,1.15,2.2.76,3-.35a1.93,1.93,0,0,0,.38-1.15s0-.26-.05-.48a1.34,1.34,0,0,1,1,.89c.21.54.29,1.16,1,.94s.67-.88.41-1.42a2.48,2.48,0,0,0-2-1.19,2.7,2.7,0,0,0,1.12-.83,2.39,2.39,0,0,0,.28-2.62c-.3-.57-1-1.19-1.25-.32s-.28,1.32-1.12,1.75a8.76,8.76,0,0,1-3,.57,3.57,3.57,0,0,0-2.8,2.8l-1.69-3.08q.68,0,1.35,0a10.24,10.24,0,0,0,4.53-.6,4.06,4.06,0,0,0,2.33-3.16,2.39,2.39,0,0,0,0-.8,1.16,1.16,0,0,0,.87-.46,27.3,27.3,0,0,1,1.94,4.27,7.61,7.61,0,0,1-1.43,6.89A3.86,3.86,0,0,1,148.12,153.46Zm-.64,3.87-1.54-2.8a5.29,5.29,0,0,0,2.89.31A5.56,5.56,0,0,0,147.48,157.33Z"/><path class="cls-78" d="M115.72,134.74a4,4,0,0,0,.73-3.43l.33-.21a1.11,1.11,0,0,0,2.15-.42,1.08,1.08,0,0,0-.63-1,4.43,4.43,0,0,0,.53-.8,1.13,1.13,0,0,0,.82.31,1.11,1.11,0,1,0-.1-2.22l-.14,0a4.85,4.85,0,0,0,0-1.2h.1a1.1,1.1,0,0,0,1.06-1.16,1.1,1.1,0,0,0-1.85-.77,4.85,4.85,0,0,0-.76-1,1.1,1.1,0,0,0,.7-1.09,1.12,1.12,0,0,0-1.16-1.06,1.1,1.1,0,0,0-1,1.07,6.84,6.84,0,0,0-1-.35,8.14,8.14,0,0,0,1.19-2.11c.05-.11.09-.24.14-.35a1.11,1.11,0,1,0,1-1.6,1,1,0,0,0-.35.07,9.55,9.55,0,0,1,1-1.88,1.07,1.07,0,0,0,.72.22,1.09,1.09,0,0,0,1-1,1.1,1.1,0,0,0-1.13-.93,1.17,1.17,0,0,0-.7.29,10.1,10.1,0,0,1-1.16-1.78,1.39,1.39,0,0,0,.35,0,1.11,1.11,0,1,0-.09-2.22,1.13,1.13,0,0,0-1,.7c-.06-.11-.11-.22-.17-.34a8.34,8.34,0,0,0-1.37-2,4.48,4.48,0,0,0,.94-.44A1.11,1.11,0,0,0,118,108a1.1,1.1,0,0,0-.79-1,5.68,5.68,0,0,0,.67-1,1.11,1.11,0,0,0,1.77-.94,1.11,1.11,0,0,0-1.16-1h-.1a5.31,5.31,0,0,0-.06-1.2h.14a1.11,1.11,0,0,0-.09-2.22,1.13,1.13,0,0,0-.8.38,4.14,4.14,0,0,0-.59-.75,1.09,1.09,0,0,0,.55-1,1.11,1.11,0,0,0-2.19-.23,3.84,3.84,0,0,0-.35-.18,4,4,0,0,0-1-3.35,3.61,3.61,0,0,0-2.09-1.14l-1.51.06a3.58,3.58,0,0,0-2.08,1.47,6.94,6.94,0,0,0-.79,2,1.15,1.15,0,0,0-.76-.26l-.16,0a2.72,2.72,0,0,0-1.4-1.61c-7.55-3-4.49,16.29-4.33,19.74l.29,6.38a.43.43,0,0,1,.12,0,6.37,6.37,0,0,1,1.34-.11,2.67,2.67,0,0,1,1.66-1.74,2.14,2.14,0,0,1,2.18,1.08,1.52,1.52,0,0,1,0,1.46,1.23,1.23,0,0,1-.81.46,4.28,4.28,0,0,1,.54.71,3.39,3.39,0,0,0,.64-.25,1.91,1.91,0,0,0,.86-.87,3.41,3.41,0,0,0,.16-.46,1.39,1.39,0,0,1,.53,1.27c0,.57-.25,1.16.51,1.29s1-.49,1-1.1a2.42,2.42,0,0,0-1.25-1.92,2.78,2.78,0,0,0,1.37-.26,2.35,2.35,0,0,0,1.41-2.23c0-.64-.35-1.49-1-.84s-.83,1.07-1.78,1.07a8.47,8.47,0,0,1-3-.81,3.54,3.54,0,0,0-2.82.43,3.42,3.42,0,0,0-.93.85l-.16-3.52c.4.21.8.41,1.19.63a10.56,10.56,0,0,0,4.33,1.46,4.07,4.07,0,0,0,3.48-1.82,2.46,2.46,0,0,0,.37-.72,1.06,1.06,0,0,0,.51.1.94.94,0,0,0,.46-.13,25.94,25.94,0,0,1-.13,4.69,7.63,7.63,0,0,1-4.32,5.56,2.82,2.82,0,0,1-.59.14,12.84,12.84,0,0,1,.1,2.72,5,5,0,0,1,1.19,1.86h-.13a1,1,0,0,0-.57.19,12.54,12.54,0,0,0,.41,2.31,1.66,1.66,0,0,0,.1-.29h.16a1.14,1.14,0,0,0,.73-.32,7.09,7.09,0,0,0,1,2,3.64,3.64,0,0,0,2.21,1.27l1.51-.06A3.66,3.66,0,0,0,115.72,134.74Zm-10.37-20.5c1.11-.5,2.57-1,3.65-.11a2.22,2.22,0,0,1,.74,1.15,2.16,2.16,0,0,1-.63,1.21c-1,1-2.49.62-3.65.22a16.5,16.5,0,0,1-2.31-1.14A17.62,17.62,0,0,1,105.35,114.24Zm-4.22-12.11a5.62,5.62,0,0,0,2.46,1.42,5.23,5.23,0,0,0-2.31,1.76Zm3.74-2.85a.82.82,0,0,0-1.39-.63,1.13,1.13,0,0,0,.45,1.73,1.91,1.91,0,0,0,2.26-.8,1.1,1.1,0,0,0,.64.17H107c-.53,1.69-1.34,3.05-3.47,2.54-1.36-.33-1.81-1.81-1.66-3.06s1.54-2.87,3-1.8A1.18,1.18,0,0,1,104.87,99.28Zm6.38,2.3A11.72,11.72,0,0,1,107,102.8a7.61,7.61,0,0,0,1.3-2.77c.44-1.51.9-4.72,3.08-4.4a1.11,1.11,0,1,0,1.49,1,1.3,1.3,0,0,0-.09-.39C114.46,97.63,113.05,100.56,111.25,101.58Zm3.67,5.36a3,3,0,0,1-1.62.47c-.26,0-1.12.07-1.26-.21s-.29-.49-.44-.72a2.76,2.76,0,0,0,1.94-.3,3.28,3.28,0,0,0,1.48-1.72,2.84,2.84,0,0,0-1-3.38,4.94,4.94,0,0,0,.57-.93c1.69.88,2.95,2.59,2.2,4.58A4.1,4.1,0,0,1,114.92,106.94Zm-1.64-5.08.11-.1a1.87,1.87,0,0,1,.81,2.35c-.7,1.7-2.1,1.52-3.5,1.18a7,7,0,0,0-1.67-1.35A8.63,8.63,0,0,0,113.28,101.86Zm-1.79,7.8a26.63,26.63,0,0,1,.56,4.65,1.33,1.33,0,0,0-.49-.09,1.13,1.13,0,0,0-.49.15,2.5,2.5,0,0,0-.42-.68,4,4,0,0,0-3.63-1.5,10.41,10.41,0,0,0-4.19,1.83l-1.13.74-.16-3.52a3.88,3.88,0,0,0,1,.77,3.57,3.57,0,0,0,2.86.17,8.62,8.62,0,0,1,2.89-1.08c.94-.07,1.22.36,1.85.91s1-.28.91-.92a2.36,2.36,0,0,0-1.6-2.09,2.59,2.59,0,0,0-1.38-.14,2.47,2.47,0,0,0,1.06-2c0-.6-.4-1.19-1.09-1s-.49.77-.39,1.33a1.42,1.42,0,0,1-.42,1.31,3.22,3.22,0,0,0-.2-.45,1.9,1.9,0,0,0-.92-.78c-1.27-.53-2.51-.24-2.76,1.25a.73.73,0,0,0,1.11.76c.31-.23.41-.87-.09-1,.52-.88,1.28-.21,1.44,0a1.51,1.51,0,0,1,.11,1.46,2.12,2.12,0,0,1-2.07,1.26,2.73,2.73,0,0,1-2-2.38,3.67,3.67,0,0,1,1.85-3.43,3.85,3.85,0,0,1,3-.59A7.56,7.56,0,0,1,111.49,109.66Zm1.86,11.75a28.75,28.75,0,0,0,.19-5.81,1.1,1.1,0,0,0,2-.58,1.1,1.1,0,0,0-1.14-1,1.07,1.07,0,0,0-.91.56,29.17,29.17,0,0,0-.71-5.76c1.85.77,2.5,3.48,3.43,5.09a6.93,6.93,0,0,0,.7,1,6.89,6.89,0,0,0-.6,1.07C115.53,117.71,115.12,120.48,113.35,121.41Zm-1.77,3.74c1.37-.46,2.75-.78,3.6.86a1.89,1.89,0,0,1-.6,2.42l-.11-.1a8.84,8.84,0,0,0-4.42-1.69A6.76,6.76,0,0,0,111.58,125.15Zm4.29,4.78a5.4,5.4,0,0,0-.65-.88,2.82,2.82,0,0,0,.74-3.45,3.34,3.34,0,0,0-1.62-1.59,2.67,2.67,0,0,0-2-.12c.13-.25.25-.51.37-.76s1-.3,1.23-.33a3.1,3.1,0,0,1,1.66.33,4.13,4.13,0,0,1,2,2C118.58,127.08,117.48,128.91,115.87,129.93Zm-3.55,3.75a1.09,1.09,0,0,0,.82,1c-2.13.53-2.88-2.64-3.45-4.1a8,8,0,0,0-1.55-2.64,11.73,11.73,0,0,1,4.32.83c1.89.87,3.55,3.65,2,5.17a1,1,0,0,0,.05-.38,1.11,1.11,0,1,0-2.22.1Z"/><path class="cls-79" d="M163.55,202.64a2.81,2.81,0,0,0-.61-2l.1-.12a1.17,1.17,0,0,0,.19-.78,6.77,6.77,0,0,0,2.14.43,3.59,3.59,0,0,0,2.36-1l.86-1.23a3.63,3.63,0,0,0,.17-2.38,4,4,0,0,0-2.27-2.68c0-.13,0-.25,0-.38a1.13,1.13,0,0,0,1.26-.41,1.12,1.12,0,0,0-.27-1.55,1.1,1.1,0,0,0-1.14-.09,5.3,5.3,0,0,0-.31-.9A1.11,1.11,0,1,0,165,187.8a.57.57,0,0,0-.08.13,4.29,4.29,0,0,0-1-.7l.06-.08a1.11,1.11,0,1,0-1.82-1.28,1.15,1.15,0,0,0-.2.71,5.14,5.14,0,0,0-1.24,0,1.11,1.11,0,1,0-1.77.54,5.71,5.71,0,0,0-.88.56,8.35,8.35,0,0,0-.95-2.22c-.06-.12-.12-.22-.19-.34a1.11,1.11,0,1,0-.84-1.41,8.74,8.74,0,0,1-.88-1.93,1.16,1.16,0,0,0,.62-.43,1.12,1.12,0,0,0-.17-1.46,1.1,1.1,0,0,0-1.42.33,1.09,1.09,0,0,0-.2.73,9,9,0,0,1-2.12-.18,1,1,0,0,0,.25-.25,1.11,1.11,0,1,0-1.82-1.28,1.13,1.13,0,0,0,0,1.21l-.37-.07a8,8,0,0,0-2.42-.14,4.56,4.56,0,0,0,.23-1,1.11,1.11,0,1,0-.08-1.85,4.81,4.81,0,0,0-.42-1.17,1.12,1.12,0,0,0,.35-2,1.12,1.12,0,0,0-1.55.27.35.35,0,0,0,0,.08,5,5,0,0,0-1-.68l.1-.12a1.11,1.11,0,0,0-.27-1.54,1.12,1.12,0,0,0-1.56.26,1.11,1.11,0,0,0-.17.86,6.15,6.15,0,0,0-1,0,1.11,1.11,0,0,0-2-.78,1.12,1.12,0,0,0,0,1.33l-.35.16a4,4,0,0,0-3.28-1.24,3.61,3.61,0,0,0-2.18.95l-.87,1.24a3.51,3.51,0,0,0-.12,2.54,6.75,6.75,0,0,0,1.12,1.87,1,1,0,0,0-.39.17,12,12,0,0,1,5,4.79,2.39,2.39,0,0,1,.23-.22,7.64,7.64,0,0,1,7-.64,27.18,27.18,0,0,1,4,2.42,1.13,1.13,0,0,0-.37.32,1.35,1.35,0,0,0-.19.49,2.63,2.63,0,0,0-.79-.09,4.05,4.05,0,0,0-3.41,2,10.47,10.47,0,0,0-1.11,4.43c0,.45-.07.9-.11,1.35l-2.88-2a3.49,3.49,0,0,0,1.21-.32,3.56,3.56,0,0,0,1.89-2.15,8.81,8.81,0,0,1,.92-3c.51-.79,1-.74,1.86-.91s.35-.91-.18-1.27a2.36,2.36,0,0,0-2.63,0,2.9,2.9,0,0,0-1,1,2.46,2.46,0,0,0-1-2.08c-.51-.32-1.18-.41-1.46.24s.3.87.81,1.13a1.42,1.42,0,0,1,.78,1.13l-.47-.11a1.9,1.9,0,0,0-1.19.25,2.79,2.79,0,0,0-.93.82,7.49,7.49,0,0,1,.2,2.09.73.73,0,0,0,1.31-.37c0-.39-.44-.85-.85-.56-.39-.94.61-1.13.84-1.16a1.5,1.5,0,0,1,1.21.8,2.13,2.13,0,0,1-.26,2.42,2.69,2.69,0,0,1-2.56.39,5.09,5.09,0,0,1-.65,1.27l5.15,3.63C147.4,197.63,162,210.63,163.55,202.64ZM140.31,182a8.64,8.64,0,0,0,1-4.64c0-.05,0-.09,0-.14a1.87,1.87,0,0,1,2.35.8c.92,1.6-.08,2.59-1.21,3.49A6.85,6.85,0,0,0,140.31,182Zm-.51-3.19a11.36,11.36,0,0,1-1.63,4.08,7.83,7.83,0,0,0-1.38-2.73c-.93-1.26-3.19-3.6-1.59-5.12a1.11,1.11,0,1,0,1.7-.57,1,1,0,0,0-.36-.16C138.65,173.83,140.1,176.73,139.8,178.79Zm4.94,2.81c-.29,0-.56-.08-.84-.1a2.7,2.7,0,0,0,.95-1.71,3.37,3.37,0,0,0-.46-2.22,2.81,2.81,0,0,0-3.31-1.25,6.3,6.3,0,0,0-.39-1c1.73-.79,3.86-.74,5,1.07a4.11,4.11,0,0,1,.63,2.79,3,3,0,0,1-.62,1.57C145.51,180.93,145.05,181.65,144.74,181.6Zm8.8,19.27a5.19,5.19,0,0,0,2.73-1,5.68,5.68,0,0,0-.13,2.84Zm-5.19-12.62a2.17,2.17,0,0,1,1.37.11,2.26,2.26,0,0,1,.56,1.25c.17,1.39-1,2.34-2.06,3a16,16,0,0,1-2.31,1.14,18.07,18.07,0,0,1,.29-2.56C146.49,190,147,188.56,148.35,188.25Zm8.41,1a29.48,29.48,0,0,0-4.46-3.7,1,1,0,1,0-.81-.57,28,28,0,0,0-5-3c1.74-1,4.29.15,6.13.4a8.65,8.65,0,0,0,1.23.06,6.44,6.44,0,0,0,.47,1.13C155.18,185.28,157.12,187.29,156.76,189.26Zm.38,7.47A3.84,3.84,0,0,1,155,199a3.71,3.71,0,0,1-3.89-.29,2.77,2.77,0,0,1-.92-3,2.14,2.14,0,0,1,2.19-1.06c.4,0,1.08.44,1.17.88,0,.22.19,1.23-.83,1.18.15-.49-.44-.75-.8-.61a.72.72,0,0,0,.05,1.34c1.39.6,2.3-.29,2.53-1.65a1.9,1.9,0,0,0-.15-1.2l-.27-.41a1.41,1.41,0,0,1,1.32.36c.42.39.77.91,1.34.39s.22-1.1-.26-1.46a2.45,2.45,0,0,0-2.28-.2,3,3,0,0,0,.63-1.24,2.36,2.36,0,0,0-.9-2.47c-.52-.38-1.4-.65-1.26.26s.33,1.31-.24,2.06A8.79,8.79,0,0,1,150,193.7a3.51,3.51,0,0,0-1.39,2.49,3.84,3.84,0,0,0,.1,1.26l-2.88-2,1.23-.56a10.25,10.25,0,0,0,3.81-2.54,4.07,4.07,0,0,0,.7-3.86,2.67,2.67,0,0,0-.35-.72,1,1,0,0,0,.39-.34,1,1,0,0,0,.18-.45,27.56,27.56,0,0,1,3.63,3A7.6,7.6,0,0,1,157.14,196.73Zm1.74-1.65a6.68,6.68,0,0,0-.24-2.13c.47-1.36,1.07-2.64,2.89-2.31a1.87,1.87,0,0,1,1.54,2l-.15,0A8.76,8.76,0,0,0,158.88,195.08Zm6.16-2.59a6.56,6.56,0,0,0-1.09,0,2.83,2.83,0,0,0-2.28-2.7,3.28,3.28,0,0,0-2.24.31,2.74,2.74,0,0,0-1.3,1.47c-.12-.25-.24-.5-.38-.75s.38-1,.51-1.18a3.09,3.09,0,0,1,1.27-1.1,4.11,4.11,0,0,1,2.84-.35C164.46,188.6,165.22,190.6,165,192.49Zm-3.25,5.3a7.62,7.62,0,0,0-3-.4,11.56,11.56,0,0,1,3.3-2.9c1.84-1,5.06-.57,5.33,1.56a1,1,0,0,0-.27-.27,1.11,1.11,0,1,0-1.28,1.81,1.09,1.09,0,0,0,1.31,0C166.25,199.58,163.3,198.23,161.79,197.79ZM159,203.68c-1.14-.54-2.15-1.72-1.69-3.05.71-2.06,2.31-2,4-1.55l-.09.11a1.12,1.12,0,0,0-.2.63,1.91,1.91,0,0,0-1.89,1.47c-.11.65.46,1.48,1.22,1.32a.82.82,0,0,0,.21-1.51,1.18,1.18,0,0,1,1.55,1C162.22,203.94,160.15,204.24,159,203.68Z"/><path class="cls-80" d="M64.19,189.05a13.82,13.82,0,0,0,7.41-6.47,10.6,10.6,0,0,0,1-3.48,6.52,6.52,0,0,1,2.51,2.54,6.61,6.61,0,0,1-10.88,7.41Z"/><path class="cls-81" d="M89.56,164a8.21,8.21,0,0,0-3.39,11.57c2.4,4.37,7.35,6.23,11.71,3.85a8.76,8.76,0,0,0,3.35-12.08A8.29,8.29,0,0,0,89.56,164Zm.68,1.23c3.2-1.75,7.37-.12,9.12,3.09a6.62,6.62,0,1,1-11.61,6.35C86,171.5,87,167,90.24,165.27Z"/><path class="cls-82" d="M65.43,177.59c-4.38,2.39-6,7.07-3.58,11.44s7.38,6.09,11.75,3.71,5.33-7.61,2.94-12S69.8,175.2,65.43,177.59Zm.66,1.42a6.62,6.62,0,1,1-2.63,9A6.62,6.62,0,0,1,66.09,179Z"/><path class="cls-83" d="M106.12,96.69a7.31,7.31,0,0,0-2.23-2.52c4.14-1.2,11.53-1.44,16-.74-4,3.35-9.59,10.79-12.27,17.58-.05-1.43-.05-2.83-.05-4.16C107.58,102.84,107.59,99.38,106.12,96.69Z"/><path class="cls-84" d="M107.44,118.84a1.2,1.2,0,0,0,1.06-1.17c.13-8,10.77-22.08,14.75-23.62a1.21,1.21,0,0,0,.77-1.12,1.25,1.25,0,0,0-.15-.58,1.22,1.22,0,0,0-.61-.55c-4.77-1.87-18.79-1.44-22.89,1.28a1.2,1.2,0,0,0-.52,1.17,1.19,1.19,0,0,0,.82,1c1.58.52,3.7.77,4.39,2,1.18,2.14,1.17,5.32,1.16,9,0,3.4-1.07,7.85-.09,11.68A1.21,1.21,0,0,0,107.44,118.84Zm.18-7.83c-.05-1.43-.05-2.83-.05-4.16,0-4,0-7.47-1.45-10.16a7.31,7.31,0,0,0-2.23-2.52c4.14-1.2,11.53-1.44,16-.74C115.92,96.78,110.3,104.22,107.62,111Z"/><path class="cls-85" d="M155.42,194.32c-1.12-.71-2.3-1.46-3.48-2.28,7.16,1.4,16.46.68,21.41-.85-1.81,4.15-6,10.23-9.24,13.07a7.29,7.29,0,0,0-.93-3.23C161.71,198.34,158.8,196.48,155.42,194.32Z"/><path class="cls-86" d="M162.13,201.6c.69,1.27-.24,3.19-.66,4.81a1.18,1.18,0,0,0,.39,1.21,1.21,1.21,0,0,0,1.26.19c4.51-2,12.43-13.55,13.42-18.57a1.23,1.23,0,0,0-.12-.82A1.3,1.3,0,0,0,176,188a1.21,1.21,0,0,0-1.36,0c-3.45,2.52-21,3.89-27.84-.32a1.21,1.21,0,0,0-1.52,1.84c2.7,2.9,7,4.39,9.89,6.23C158.28,197.76,161,199.46,162.13,201.6Zm1.05-.57c-1.47-2.69-4.38-4.55-7.76-6.71-1.12-.71-2.3-1.46-3.48-2.28,7.16,1.4,16.46.68,21.41-.85-1.81,4.15-6,10.23-9.24,13.07A7.29,7.29,0,0,0,163.18,201Z"/><path class="cls-87" d="M159.13,134.15a14.75,14.75,0,0,1-6.35.22,48.26,48.26,0,0,0-7.65-1.17c-4.63-.21-8.48,3.2-11.34,6.41a22.94,22.94,0,0,0-2.89-1.45,8.77,8.77,0,0,0,.92-.46,12.69,12.69,0,0,0,3.55-3.64,8,8,0,0,1,2.49-3.18c3.57-2.25,9.55-.48,15.14,1.12,2.13.6,4.29,1.19,6.39,1.59C159.31,133.78,159.22,134,159.13,134.15Z"/><path class="cls-80" d="M132.61,137.12c9.76,2,14.62,10.27,15.3,19.43l-1.26-.06a7.3,7.3,0,0,0-3.81.35,6.8,6.8,0,0,0-.88.52,21,21,0,0,0-.93-10.75l-.88-1.6a24,24,0,0,0-9.25-6.85,8.77,8.77,0,0,0,.92-.46A9.14,9.14,0,0,0,132.61,137.12Z"/><path class="cls-80" d="M141.24,167c-2.52,3.32-4.76,7.6-1.29,11.19,2.69,2.79,6.29,5.44,6.42,9.35a1.2,1.2,0,0,0-1.08,2c.21.22.45.42.67.63a18.24,18.24,0,0,1-2.38,4.63c-1.16-.81-2.29-1.63-3.41-2.5a3.82,3.82,0,0,0,1.65-2.38c.51-2.44-1.87-6.55-5.27-9-2.27-1.64-3.78-3.87-4-5.83a4.48,4.48,0,0,1,1.38-3.57,32.83,32.83,0,0,0,5.82-7.93,12.93,12.93,0,0,0,1.26,3.11C141.11,166.79,141.18,166.9,141.24,167Z"/><path class="cls-88" d="M108,91c-3.22.38-6.07,1.07-7.58,2.07a1.48,1.48,0,0,0-.28.28c-1.28.51-2.54,1.07-3.77,1.7a15.85,15.85,0,0,0-4-2.45c9.82-3.86,20.34-4.84,32.23-3A70.49,70.49,0,0,0,108,91Z"/><path class="cls-80" d="M109.1,125.05c1.76,2.12,2.64,5.23,4.68,7.07a28.14,28.14,0,0,0,7.71,4.67,36.29,36.29,0,0,0-6.11.72,4.47,4.47,0,0,1-3.75-.77c-1.55-1.2-2.62-3.68-2.78-6.46a14.65,14.65,0,0,0-2.15-6.84A5.64,5.64,0,0,1,109.1,125.05Z"/><path class="cls-89" d="M157.91,219c13.09-9.55,23-22.72,28.5-42.65a1.19,1.19,0,0,0-.45-1.3,1.2,1.2,0,0,0-1.37,0c-12.23,8.08-17,9.76-22,7.73a95,95,0,0,1-11.59-8c-3.17-2.56-10.41-9.25-8.9-13.94a3.12,3.12,0,0,1,1.8-1.81,5.81,5.81,0,0,1,2.58-.12,10.58,10.58,0,0,0,10.42-6.08,58.91,58.91,0,0,1,2.36-6c.28-.88.55-1.76.81-2.63a24.13,24.13,0,0,1,3.74-7.38c.57-.76,3.3-5.33,4.15-5.49-4.72.85-9.36.07-14.08-.25-2.8-.2-5.18-1.89-7.84-2.39-5.39-1-10.55.06-13.28,5.13a5.78,5.78,0,0,1-1.5,2.11,3.11,3.11,0,0,1-2.49.54c-4.74-1.26-6.49-10.94-6.93-15a93.94,93.94,0,0,1-.5-14.08c1-5.28,5-8.38,18.17-14.26a1,1,0,0,0,.32-.12,1.17,1.17,0,0,0,.47-1.64,1.2,1.2,0,0,0-.7-.58c-19.74-6.15-36.14-4.39-51.29,1A1.16,1.16,0,0,0,87.6,93a1.21,1.21,0,0,0,1,1c4.58.77,8.82,3.3,10.28,5.95a7.09,7.09,0,0,1,1,3.85c-1.44,16.39.21,33.27,6.76,48.23a218.16,218.16,0,0,0-29.82,13.65c-19,10.39-37.52,23.8-42.47,32.69-1.32,3.78-6.08,1.52-8.6.94a16.81,16.81,0,1,0,7.81,14.59c.86-2.39.71-7.39,5.53-6.93,0,0,.1,0,.14-.06,10.24.49,31.37-7.84,50.22-18.15A219.72,219.72,0,0,0,117,171c9,13.58,22.37,24.07,36.94,31.69a6.94,6.94,0,0,1,2.72,2.94c1.45,2.65,1.29,7.58-.53,11.86a1.19,1.19,0,0,0,.33,1.39A1.15,1.15,0,0,0,157.91,219ZM29.66,206.3a14.87,14.87,0,0,1-6,19.84c-7,3.81-16.16,1.47-20-5.49S2.64,204,9.6,200.21,25.85,199.33,29.66,206.3ZM33,209.21a17,17,0,0,0-1.48-3.75,16.89,16.89,0,0,0-2.26-3.16,8.61,8.61,0,0,0,6.37-1.84A2.76,2.76,0,0,1,38,204.8,9.11,9.11,0,0,0,33,209.21Zm6.38-13.84c.7,1.54,1.44,3.07,2.24,4.55s1.71,2.94,2.64,4.36a29.11,29.11,0,0,1-3.68.39,4.89,4.89,0,0,0-3.54-6.35A27.21,27.21,0,0,1,39.39,195.37Zm2.71-2.79c.82,1.9,1.7,3.79,2.7,5.61s2.11,3.61,3.27,5.32l-1.28.29c-1-1.53-2-3.19-3-5s-1.86-3.59-2.59-5.27Zm8.62-7.33A65.16,65.16,0,0,0,54.31,193a66.07,66.07,0,0,0,4.57,7.2c-2.2.79-5.43,2.63-7.73,1.74S48,199.08,47,197.11c-.81-1.46-1.89-3.12-2.06-4.74C44.55,189,48.54,186.93,50.72,185.25Zm3-2.22a63.29,63.29,0,0,0,3.78,8.23,65.69,65.69,0,0,0,4.88,7.63l-1.14.45a63.76,63.76,0,0,1-4.8-7.49,61.71,61.71,0,0,1-3.72-8.09Zm43.56-24.82c3.27-.23,5.35,5.21,6.68,7.64,1.41,2.59,4.56,6.69,2.47,9.51-1.66,2.25-4.39,3.25-6.69,4.67q-5.64,3.47-11.43,6.64-6.51,3.56-13.22,6.74c-2.71,1.28-5.57,3.17-8.61,3.62-4,.59-5.53-3.63-7.16-6.61-1.31-2.39-4.49-7.29-2.38-9.85,2.33-2.83,5.57-4.45,8.57-6.4,3.93-2.56,8-4.89,12.11-7.13,3.71-2,7.43-4,11.28-5.75C91.58,160.06,94.23,158.44,97.26,158.21ZM111,172.59l-1,.7a65.37,65.37,0,0,0-9-16.53l1.13-.46a62.87,62.87,0,0,1,5,7.82A61.64,61.64,0,0,1,111,172.59Zm2.91-3.2c-2.66-.94-3.45-4.21-4.66-6.42-.79-1.45-3.85-5-3.34-7.26a2.19,2.19,0,0,1,1.68-1.57c1,1.84,1.85,3.78,2.86,5.64.07.1.78,1.39,1.12,1.92s.95,1.86,1,2c1,1.84,2.07,3.62,3.18,5.39C116,169.51,114,169.44,113.88,169.39Zm11.32-32.5a33,33,0,0,0-9.82.62,4.47,4.47,0,0,1-3.75-.77c-1.55-1.2-2.62-3.68-2.78-6.46-.24-4.2-2.42-8.42-4.75-9.31a3.82,3.82,0,0,0-2.89.1,94.15,94.15,0,0,1,0-16.45,9.38,9.38,0,0,0-1.3-5.24,15.81,15.81,0,0,0-7.57-6.77c12.8-5,26.76-5.18,43.43-.48C125.16,97,120.12,100.65,119,107a.86.86,0,0,0,0,.16,95.92,95.92,0,0,0,.49,14.53,39.75,39.75,0,0,0,2,8.81C121.83,131.64,123.63,136.74,125.2,136.89Zm21.45,19.6a7.3,7.3,0,0,0-3.81.35,6.8,6.8,0,0,0-.88.52,21,21,0,0,0-.93-10.75l-.88-1.6a24,24,0,0,0-9.25-6.85,8.77,8.77,0,0,0,.92-.46,12.69,12.69,0,0,0,3.55-3.64,8,8,0,0,1,2.49-3.18c3.57-2.25,9.55-.48,15.14,1.12a49.71,49.71,0,0,0,9.21,2c-1.38,2.63-3.54,6.39-4.46,9.46-1.67,5.58-3.25,10.84-7.07,12.63A8,8,0,0,1,146.65,156.49Zm-13.82,14.4a6.83,6.83,0,0,0-2.05,5.45c.24,2.68,2.08,5.51,4.93,7.57s4,4.36,3.75,5.53a1.78,1.78,0,0,1-1.38,1.22,95.15,95.15,0,0,1-23.42-28.14c-.06-.11-.76-1.45-1-1.9a.71.71,0,0,0-.08-.15c-.27-.43-1-1.74-1.08-1.85a95,95,0,0,1-11.06-34.9,1.8,1.8,0,0,1,1.77-.5c1.13.43,2.42,2.53,2.63,6.14s1.59,6.59,3.71,8.23a6.87,6.87,0,0,0,5.71,1.22c13.15-2.67,20.91,3.85,24,8C141.1,151.62,142.17,161.25,132.83,170.89Zm26.53,44.23a15.77,15.77,0,0,0-1.62-10,9.2,9.2,0,0,0-3.73-3.93,94.83,94.83,0,0,1-13.84-8.85,3.82,3.82,0,0,0,1.65-2.38c.51-2.44-1.87-6.55-5.27-9-2.27-1.64-3.78-3.87-4-5.83a4.48,4.48,0,0,1,1.38-3.57,32.83,32.83,0,0,0,5.82-7.93,12.93,12.93,0,0,0,1.26,3.11,42,42,0,0,0,8.42,9.94,97.12,97.12,0,0,0,12,8.26.69.69,0,0,0,.15.07c6,2.45,11.74.16,21.6-6.15C178.17,195.38,170.5,207.05,159.36,215.12Z"/><path class="cls-90" d="M29.66,206.3c-3.81-7-13.09-9.9-20.06-6.09s-9.68,13.48-5.87,20.44,13,9.3,20,5.49A14.87,14.87,0,0,0,29.66,206.3ZM26.85,208a11,11,0,1,1-15-4.38A11.05,11.05,0,0,1,26.85,208Z"/><g class="cls-73"><g class="cls-91"><path class="cls-92" d="M23.13,225.27c.44-.18.88-.37,1.32-.6a11.06,11.06,0,0,0,5.39-12.39c.66-1.33,1.31-2.66,1.94-4a14.86,14.86,0,0,1-6.1,19.54,14.64,14.64,0,0,1-5.23,1.68Q21.89,227.46,23.13,225.27Z"/></g></g><path class="cls-93" d="M.7,210.33c.92-7.51,8-13.78,15.62-13.39a13.63,13.63,0,0,1,2.57.4C12.06,200.58,5.07,204.3.7,210.33Z"/><path class="cls-94" d="M96.7,177.39a6.94,6.94,0,1,1,2.71-9.4A6.92,6.92,0,0,1,96.7,177.39Z"/><path class="cls-95" d="M89.17,166.38a4.21,4.21,0,0,0-.73,1.52c-1,4,3.39,6,6.25,4.75,2.23-1,4.48-5.17,1.55-7.27A5.3,5.3,0,0,0,89.17,166.38Z"/><g class="cls-96"><path class="cls-97" d="M86.4,171.63a7.39,7.39,0,0,0,4.16,5.88l.71.25a7.59,7.59,0,0,0,5.47-.62,7.31,7.31,0,0,0,3.47-4.26c.11-.39.57-2.91-.42-2.51-.46.19-.65,1.1-.94,1.49a9.09,9.09,0,0,1-1.73,1.72,7.44,7.44,0,0,1-4.52,1.55,5.77,5.77,0,0,1-3.95-1.79,6.23,6.23,0,0,1-1.31-1.88C86.84,170.34,86.27,170.34,86.4,171.63Z"/></g><path class="cls-46" d="M90,175.19a1.7,1.7,0,0,0-.35.59c-.4,1.06.71,1.72,1.58,2,2,.6,6.52.21,6.73-2.6.09-1.14-1.21-1.15-2-.9a9.75,9.75,0,0,1-3.45.87C91.69,175.12,90.68,174.58,90,175.19Z"/><g class="cls-98"><path class="cls-99" d="M97.74,176.69l.27-.22a6.76,6.76,0,0,0,1.09-1.18c.08-.1.14-.2.21-.28a7.17,7.17,0,0,0,.88-1.91c.06-.23.12-.46.16-.69s0-.24,0-.37a8.07,8.07,0,0,1-6.38,5.6,7.47,7.47,0,0,1-6.44-2.73l0,.12c0,.05,0,.09.07.13a5.62,5.62,0,0,0,.82,1.14,6.87,6.87,0,0,0,.63.58,6,6,0,0,0,1.41.85,6.55,6.55,0,0,0,.71.26,6.88,6.88,0,0,0,2.08.29l.35,0a7.4,7.4,0,0,0,1.59-.29l.32-.11a7.43,7.43,0,0,0,1.13-.49A7.86,7.86,0,0,0,97.74,176.69Z"/></g><path class="cls-49" d="M91,166.73a.68.68,0,0,0-.85-.37.63.63,0,0,0-.26.87.66.66,0,0,0,.85.37A.64.64,0,0,0,91,166.73Z"/><path class="cls-49" d="M97.17,166.93c-1.56-1.16-4.34-1.48-5.21-1.09s-.39,1.85.54,1.58c.73-.21,3.52-1,4.65-.45C97.16,167,97.19,167,97.17,166.93Z"/><path class="cls-100" d="M72.48,190.64a6.95,6.95,0,1,1,2.71-9.4A6.92,6.92,0,0,1,72.48,190.64Z"/><path class="cls-101" d="M65,179.63a4.21,4.21,0,0,0-.73,1.52c-1,4,3.4,6,6.25,4.75,2.24-1,4.48-5.17,1.55-7.27A5.31,5.31,0,0,0,65,179.63Z"/><g class="cls-102"><path class="cls-103" d="M62.18,184.88a7.4,7.4,0,0,0,4.17,5.87,4.55,4.55,0,0,0,.71.26,7.62,7.62,0,0,0,5.46-.62A7.3,7.3,0,0,0,76,186.12c.12-.39.57-2.9-.42-2.5-.46.19-.64,1.09-.94,1.48a8.54,8.54,0,0,1-1.73,1.72,7.43,7.43,0,0,1-4.52,1.56,5.76,5.76,0,0,1-3.94-1.78,6.38,6.38,0,0,1-1.32-1.89C62.62,183.59,62.05,183.59,62.18,184.88Z"/></g><path class="cls-46" d="M65.83,188.44a1.52,1.52,0,0,0-.36.58c-.4,1.06.71,1.73,1.59,2,2,.59,6.51.22,6.73-2.61.08-1.14-1.22-1.14-2-.89a9.75,9.75,0,0,1-3.45.87C67.47,188.37,66.46,187.82,65.83,188.44Z"/><g class="cls-104"><path class="cls-105" d="M73.52,189.93a2.65,2.65,0,0,0,.26-.21,7.17,7.17,0,0,0,1.1-1.18c.08-.1.14-.19.21-.29a7,7,0,0,0,.88-1.9,6,6,0,0,0,.16-.68l0-.39a8.08,8.08,0,0,1-6.38,5.61,7.46,7.46,0,0,1-6.43-2.73.61.61,0,0,0,0,.12,1.39,1.39,0,0,0,.06.13,5.55,5.55,0,0,0,.83,1.14,4.89,4.89,0,0,0,.62.58,6.3,6.3,0,0,0,1.41.85c.22.09.46.18.71.26a7.25,7.25,0,0,0,2.08.28,2.11,2.11,0,0,0,.35,0,7.37,7.37,0,0,0,1.59-.28l.33-.11a7.32,7.32,0,0,0,1.12-.49A6.75,6.75,0,0,0,73.52,189.93Z"/></g><path class="cls-49" d="M66.81,180a.68.68,0,0,0-.85-.37.65.65,0,0,0-.26.88.68.68,0,0,0,.85.38A.66.66,0,0,0,66.81,180Z"/><path class="cls-49" d="M73,180.18c-1.56-1.16-4.33-1.48-5.2-1.09s-.41,1.85.53,1.57c.73-.2,3.53-1,4.65-.45C73,180.22,73,180.19,73,180.18Z"/><path class="cls-106" d="M21.89,222a9.61,9.61,0,1,1-9.22-16.86A9.61,9.61,0,1,1,21.89,222Z"/><path class="cls-107" d="M11.42,206.82A5.79,5.79,0,0,0,10.35,209c-1.49,5.65,4.71,8.24,8.79,6.48,3.19-1.37,6.49-7.3,2.36-10.17A7.75,7.75,0,0,0,11.42,206.82Z"/><g class="cls-108"><path class="cls-109" d="M7.37,214.21a9.9,9.9,0,0,0,5.8,8.1,6.56,6.56,0,0,0,1,.35,11.12,11.12,0,0,0,7.79-1,10.68,10.68,0,0,0,5-6c.17-.54.87-4.06-.54-3.47-.67.27-.95,1.53-1.38,2.08a12.51,12.51,0,0,1-2.49,2.44A10.94,10.94,0,0,1,16.11,219a8,8,0,0,1-5.57-2.4A8.8,8.8,0,0,1,8.71,214C8,212.4,7.21,212.41,7.37,214.21Z"/></g><path class="cls-46" d="M12.48,219.1a2.36,2.36,0,0,0-.52.82c-.58,1.49,1,2.39,2.21,2.74,2.78.79,9.28.17,9.63-3.77.14-1.6-1.7-1.58-2.75-1.21A14.54,14.54,0,0,1,16.11,219C14.81,219,13.4,218.23,12.48,219.1Z"/><g class="cls-110"><path class="cls-111" d="M23.4,221l.37-.31a10.87,10.87,0,0,0,1.59-1.67c.11-.14.2-.27.29-.4A9.94,9.94,0,0,0,27,216c.09-.33.17-.64.23-1,0-.17,0-.35.06-.53a11.89,11.89,0,0,1-9.21,8A10.36,10.36,0,0,1,9,218.76c0,.06.05.11.08.16a.82.82,0,0,0,.09.19,7.42,7.42,0,0,0,1.14,1.57,9.48,9.48,0,0,0,.88.8,8.2,8.2,0,0,0,2,1.15,9.19,9.19,0,0,0,1,.35,9.63,9.63,0,0,0,2.95.35l.49,0a10.57,10.57,0,0,0,2.27-.43l.46-.16a10.94,10.94,0,0,0,1.61-.71A12.58,12.58,0,0,0,23.4,221Z"/></g><path class="cls-49" d="M14.06,207.27a1,1,0,0,0-1.21-.5.91.91,0,0,0-.38,1.23,1,1,0,0,0,1.2.5A.91.91,0,0,0,14.06,207.27Z"/><path class="cls-49" d="M22.79,207.43c-2.19-1.59-6.13-2-7.39-1.41s-.6,2.58.73,2.18c1.05-.3,5-1.45,6.63-.73A0,0,0,1,0,22.79,207.43Z"/><path class="cls-112" d="M59.64,180.93c4.9-2.5,9.42-5.71,14.19-8.46,4.47-2.57,9-4.86,13.41-7.61,4.64-2.93,9.39-5.8,14.31-8.26,0,0,0-.08,0-.07-4.85,1.52-9.7,2.94-14.49,4.6a95.39,95.39,0,0,0-15.15,7.18c-4.52,2.52-9.38,5.05-13.39,8.32-4.51,3.67-8.91,7.72-13,11.81a.45.45,0,0,0,.57.69A95.55,95.55,0,0,1,59.64,180.93Z"/><path class="cls-113" d="M73.3,187.46a9,9,0,1,1,3.56-12.15A9,9,0,0,1,73.3,187.46Z"/><path class="cls-114" d="M98.63,174.17A9,9,0,1,1,102.19,162,9,9,0,0,1,98.63,174.17Z"/><path class="cls-80" d="M95.65,184.47c5.65-3.49,19.78-11.83,21.33-13.53a170,170,0,0,1-9.9-17.69s1.33,13.18-.68,16.24C103,174.66,95.16,178,90,181,73.89,190.3,57.2,198.85,38.9,202.7c-.86.18-.88,1.63.07,1.61C59.57,203.87,78.4,195.13,95.65,184.47Z"/><g class="cls-115"><path class="cls-116" d="M87.35,190.16c-14.58,7.67-39.18,16.92-46.33,16a1.53,1.53,0,0,1,.18-1.29c13.49-1.63,25.56-8.23,37.87-13.9a144.7,144.7,0,0,0,20.24-11.31c5.46-3.66,11.28-6.1,16.23-10.54.15-.14.47,0,.39.2-1.29,3.87-4.91,6.22-8.23,8.34C101,182,94.44,186.43,87.35,190.16Z"/></g></g></g></g></svg>